<?xml version="1.0" encoding="UTF-8"?>
<svg xmlns="http://www.w3.org/2000/svg" version="1.1" viewBox="0 0 595.28 841.89">
  <defs>
    <style>
      .cls-1 {
        font-family: Montserrat-Black, Montserrat;
        font-weight: 800;
      }

      .cls-1, .cls-2 {
        letter-spacing: .05em;
      }

      .cls-3, .cls-4, .cls-5, .cls-6, .cls-7, .cls-8, .cls-9, .cls-10 {
        display: none;
      }

      .cls-3, .cls-11, .cls-7 {
        fill: #fff;
      }

      .cls-3, .cls-10 {
        font-size: 19.32px;
      }

      .cls-2, .cls-12, .cls-13, .cls-10 {
        font-family: Montserrat-Bold, Montserrat;
        font-weight: 700;
      }

      .cls-12 {
        letter-spacing: .05em;
      }

      .cls-14 {
        fill: #cf7de0;
      }

      .cls-15, .cls-16, .cls-5 {
        fill: #502052;
      }

      .cls-17 {
        fill: none;
        stroke: #502052;
        stroke-linecap: round;
        stroke-linejoin: round;
        stroke-width: 3.48px;
      }

      .cls-18 {
        fill: #ffbd69;
      }

      .cls-4 {
        fill: #b75cb9;
      }

      .cls-19 {
        fill: #502052;
      }

      .cls-20 {
        opacity: .6;
      }

      .cls-16 {
        font-size: 40.56px;
      }

      .cls-16, .cls-5, .cls-7 {
        font-family: LuckiestGuy-Regular, 'LuckiestGuy Regular';
      }

      .cls-5 {
        font-size: 65.67px;
      }

      .cls-6 {
        fill: #6b2b6d;
        font-size: 14.49px;
      }

      .cls-6, .cls-9 {
        font-family: Montserrat-Medium, Montserrat;
        font-weight: 500;
      }

      .cls-7 {
        font-size: 96.58px;
      }

      .cls-13 {
        letter-spacing: .02em;
      }

      .cls-9 {
        font-size: 17.38px;
      }

      .cls-9, .cls-10 {
        fill: #fe9dcc;
      }

      .cls-10 {
        letter-spacing: 0em;
      }
    </style>
  </defs>
  <!-- Generator: Adobe Illustrator 28.6.0, SVG Export Plug-In . SVG Version: 1.2.0 Build 709)  -->
  <g>
    <g id="PRINT">
      <rect class="cls-4" x="-8.5" y="-8.5" width="612.28" height="858.9"/>
      <g class="cls-20">
        <path class="cls-14" d="M516.39,622.08c3.79,0,7.42-3.33,7.24-7.24s-3.18-7.24-7.24-7.24c-3.79,0-7.42,3.33-7.24,7.24s3.18,7.24,7.24,7.24h0Z"/>
        <path class="cls-14" d="M164.9,802.08c3.79,0,7.42-3.33,7.24-7.24s-3.18-7.24-7.24-7.24c-3.79,0-7.42,3.33-7.24,7.24s3.18,7.24,7.24,7.24h0Z"/>
        <path class="cls-14" d="M464.25,141.32c3.16,0,6.18-2.78,6.04-6.04s-2.65-6.04-6.04-6.04c-3.16,0-6.18,2.78-6.04,6.04.15,3.27,2.65,6.04,6.04,6.04h0Z"/>
        <path class="cls-14" d="M81.86,597.67c3.16,0,6.18-2.78,6.04-6.04s-2.65-6.04-6.04-6.04c-3.16,0-6.18,2.78-6.04,6.04s2.65,6.04,6.04,6.04h0Z"/>
        <path class="cls-14" d="M172.63,654.16c2.53,0,4.95-2.22,4.83-4.83s-2.12-4.83-4.83-4.83c-2.53,0-4.95,2.22-4.83,4.83s2.12,4.83,4.83,4.83h0Z"/>
        <path class="cls-14" d="M380.55,78.3c2.53,0,4.95-2.22,4.83-4.83s-2.12-4.83-4.83-4.83c-2.53,0-4.95,2.22-4.83,4.83s2.12,4.83,4.83,4.83h0Z"/>
        <path class="cls-14" d="M444.35,800.05c2.53,0,4.95-2.22,4.83-4.83s-2.12-4.83-4.83-4.83c-2.53,0-4.95,2.22-4.83,4.83s2.12,4.83,4.83,4.83h0Z"/>
      </g>
      <path class="cls-19" d="M505.26,766.66c-4.85-.1-8.75,2.84-9.62,7.68-.77,4.33,1.37,9.06,5.53,10.76,5.26,2.15,11.96.03,13.91-5.51,2.44-6.94-3.25-12.74-9.83-12.94-2.06-.06-2.05,3.13,0,3.19,5.13.15,8.77,4.76,6.4,9.79-1.65,3.5-7.24,3.78-10.19,2.04-2.33-1.37-3.11-4.48-2.66-6.98.58-3.28,3.29-4.92,6.46-4.86,2.06.04,2.05-3.15,0-3.19h0Z"/>
      <path class="cls-19" d="M475.33,82.52c-3.56-.16-7.03,1.51-8.66,4.77-1.49,2.98-1.46,6.58.07,9.53,1.71,3.31,5.26,5.03,8.9,4.93,2.45-.07,4.92-.74,6.85-2.27s2.82-3.69,3.03-6.02c.25-2.82-.56-5.87-2.5-7.98s-4.87-2.94-7.68-2.96c-2.05-.01-2.05,3.18,0,3.19,1.81.01,3.71.43,4.97,1.58,1.36,1.24,1.98,3.01,2.05,4.93.06,1.74-.35,3.31-1.48,4.44s-2.87,1.73-4.64,1.87c-.4.03-.8.05-1.2.03-.19,0-.38-.02-.57-.03-.1,0-.21-.02-.31-.03.23.03,0,0-.11-.02-.36-.07-.72-.15-1.07-.26-.16-.05-.31-.11-.47-.16-.17-.06.04.02.06.03-.1-.04-.21-.09-.31-.14-.3-.15-.59-.31-.86-.5-.07-.05-.39-.28-.26-.18.11.09-.26-.22-.33-.29-.22-.2-.42-.42-.61-.64-.27-.31,0,.02-.14-.17-.09-.14-.19-.27-.28-.42-.15-.25-.29-.51-.42-.77-.19-.38,0,.03-.09-.19-.06-.16-.12-.31-.17-.47-.1-.3-.18-.6-.24-.91-.03-.14-.05-.29-.08-.43-.01-.08-.03-.31,0,.05,0-.08-.02-.17-.03-.25-.02-.31-.04-.62-.04-.94,0-.15,0-.29.02-.44,0-.09.05-.6.03-.41-.03.21.03-.2.05-.28.03-.16.07-.32.1-.48.07-.3.17-.59.27-.89.03-.08.06-.15.09-.23.08-.21-.17.34,0-.01.07-.15.14-.29.22-.44.17-.31.35-.6.56-.88.13-.19-.17.21-.02.03.07-.08.13-.16.2-.23.11-.12.22-.24.34-.36.13-.13.28-.25.42-.37s-.06.05-.08.06c.08-.06.17-.13.26-.18.31-.2.62-.38.95-.54.06-.03.28-.12-.02,0,.08-.03.17-.07.25-.1.2-.07.39-.13.59-.19s.41-.1.62-.14c.07-.01.14-.03.22-.04.18-.03-.21.02.09,0,.48-.04.95-.05,1.42-.03,2.05.09,2.05-3.1,0-3.19h0Z"/>
      <path class="cls-19" d="M69.42,617.79c-3.34-.07-6.11,2-6.71,5.34-.55,3.1.97,6.37,3.94,7.59,3.68,1.51,8.27-.11,9.61-3.93,1.69-4.8-2.28-8.87-6.85-9.01-2.06-.06-2.05,3.13,0,3.19,2.82.08,4.94,2.57,3.6,5.41-.92,1.96-4.1,2.07-5.74,1.1-1.25-.74-1.68-2.48-1.44-3.82.33-1.86,1.79-2.73,3.58-2.69,2.06.04,2.05-3.15,0-3.19h0Z"/>
      <g>
        <path class="cls-19" d="M94.46,164.69c.44,7.91.58,15.83.69,23.75.03,2.05,3.21,2.06,3.19,0-.11-7.92-.24-15.84-.69-23.75-.11-2.04-3.3-2.05-3.19,0h0Z"/>
        <path class="cls-19" d="M84.22,178.13c8.36.51,16.71.13,25.06-.31,2.04-.11,2.05-3.3,0-3.19-8.36.44-16.7.82-25.06.31-2.05-.12-2.04,3.06,0,3.19h0Z"/>
        <path class="cls-19" d="M87.29,169.96c5.38,5.57,11.04,10.85,16.38,16.46,1.42,1.49,3.67-.77,2.25-2.25-5.34-5.61-11-10.89-16.38-16.46-1.43-1.48-3.68.78-2.25,2.25h0Z"/>
        <path class="cls-19" d="M88.34,185.99c6.35-5.01,11.42-11.35,17.28-16.89,1.5-1.41-.76-3.66-2.25-2.25-5.86,5.53-10.93,11.87-17.28,16.89-1.61,1.27.66,3.51,2.25,2.25h0Z"/>
      </g>
      <path class="cls-17" d="M126.86,705.03c-16.04-4.96-37.8-23.27-27.41-38.54,4.43-6.51,15.45-5.14,21.15.48,12.15,11.98,1.18,14.71-.02,9.94-4.41-17.61,20.27-27.37,25.6-10.39,4.42,14.05-6.13,30.3-19.32,38.51"/>
      <path class="cls-18" d="M480.37,184.17l-16.62,1.83c.75-7.28,2.33-21.31,2.33-21.31l-18.6,1.07,3.59,32.11,16.6-1.76.97,24.42,11.74-36.36Z"/>
      <path class="cls-18" d="M123.8,787.52l5.6-23.79,15.96,4.89,9.63-30.84-18.06-4.59s-1.12,14.07-1.76,21.36l-15.97-4.96,4.61,37.93Z"/>
      <text class="cls-9" transform="translate(170.08 807.93)"><tspan x="0" y="0">Follow us @womensday2023</tspan></text>
      <g class="cls-8">
        <g>
          <path class="cls-15" d="M350.17,767.74c0,7.16-5.81,12.98-12.97,12.98s-12.98-5.81-12.98-12.98,5.81-12.98,12.98-12.98,12.97,5.81,12.97,12.98Z"/>
          <g>
            <path class="cls-11" d="M337.19,775.33c-1.33,0-2.63-.35-3.79-1.02l-2.96,1.02.61-3.13c-.96-1.31-1.46-2.85-1.46-4.46,0-4.19,3.4-7.59,7.59-7.59s7.59,3.41,7.59,7.59-3.41,7.59-7.59,7.59ZM333.54,773.07l.23.14c1.03.64,2.22.99,3.43.99,3.56,0,6.46-2.9,6.46-6.47s-2.9-6.46-6.46-6.46-6.46,2.9-6.46,6.46c0,1.45.47,2.83,1.37,3.98l.16.2-.33,1.71,1.61-.55Z"/>
            <path class="cls-11" d="M333.36,764.82s.45-.78.81-.82c.36-.05.83-.05.96.19.12.24.69,1.62.69,1.62,0,0,.1.24-.05.47-.15.23-.49.56-.49.56,0,0-.19.24,0,.49.19.25.48.71,1.07,1.31.59.6,1.74,1.02,1.74,1.02,0,0,.16.02.27-.08.1-.11.67-.81.67-.81,0,0,.18-.23.48-.1.3.14,1.6.79,1.6.79,0,0,.15.06.15.29s-.09.79-.28.98c-.19.19-.75.78-1.58.78s-2.82-.68-3.89-1.74c-1.06-1.06-2-2.14-2.23-3.12-.22-.98-.19-1.42.08-1.83Z"/>
          </g>
        </g>
        <g>
          <circle class="cls-15" cx="297.64" cy="767.74" r="12.98" transform="translate(-9.57 3.78) rotate(-.72)"/>
          <path class="cls-11" d="M298.93,776.08v-7.62h2.55l.39-2.97h-2.94v-1.9c0-.86.24-1.44,1.47-1.44h1.57v-2.66c-.27-.03-1.21-.12-2.29-.12-2.27,0-3.82,1.38-3.82,3.92v2.19h-2.56v2.97h2.56v7.62h3.07Z"/>
        </g>
        <g>
          <path class="cls-15" d="M271.06,767.74c0,7.16-5.81,12.98-12.98,12.98s-12.98-5.81-12.98-12.98,5.81-12.98,12.98-12.98,12.98,5.81,12.98,12.98Z"/>
          <g>
            <path class="cls-11" d="M261.24,775.61h-6.31c-2.8,0-5.08-2.28-5.08-5.09v-5.56c0-2.8,2.28-5.08,5.08-5.08h6.31c2.8,0,5.08,2.28,5.08,5.08v5.56c0,2.8-2.28,5.09-5.08,5.09ZM254.93,761c-2.18,0-3.95,1.77-3.95,3.95v5.56c0,2.18,1.77,3.95,3.95,3.95h6.31c2.18,0,3.95-1.77,3.95-3.95v-5.56c0-2.18-1.77-3.95-3.95-3.95h-6.31Z"/>
            <path class="cls-11" d="M258.09,772.26c-2.5,0-4.53-2.03-4.53-4.53s2.03-4.52,4.53-4.52,4.53,2.03,4.53,4.52-2.03,4.53-4.53,4.53ZM258.09,764.34c-1.87,0-3.39,1.52-3.39,3.39s1.52,3.4,3.39,3.4,3.39-1.52,3.39-3.4-1.52-3.39-3.39-3.39Z"/>
            <path class="cls-11" d="M263.48,763.35c0,.52-.42.94-.94.94s-.94-.42-.94-.94.42-.94.94-.94.94.42.94.94Z"/>
          </g>
        </g>
      </g>
      <text class="cls-6" transform="translate(125.1 717.24)"><tspan x="0" y="0">Lorem ipsum dolor sit amet, consectetur ur elit </tspan><tspan x="16.89" y="22.05">adipiscing, do eiusmod tempor incididunt.</tspan></text>
      <text class="cls-3" transform="translate(103.93 688.54)"><tspan class="cls-13" x="0" y="0">DAY OF ACTIVITIES</tspan><tspan class="cls-12" x="203.12" y="0"> </tspan><tspan class="cls-1" x="209.55" y="0">· </tspan><tspan class="cls-2" x="224.31" y="0">STARTS AT 10H</tspan></text>
      <g class="cls-8">
        <text class="cls-16" transform="translate(102.32 658.07)"><tspan x="0" y="0">LET’S FIGHT TOGETHER</tspan></text>
      </g>
      <text class="cls-5" transform="translate(94.57 223.04)"><tspan x="0" y="0">WOMEN’S DAY</tspan></text>
      <text class="cls-7" transform="translate(109.38 157.09)"><tspan x="0" y="0">MARCH 8</tspan></text>
      <text class="cls-10" transform="translate(197.26 65.73)"><tspan x="0" y="0">YOUR EVENT NAME</tspan></text>
    </g>
  </g>
</svg>