<svg width="20" height="20" viewBox="0 0 20 20" fill="none" xmlns="http://www.w3.org/2000/svg">
<path d="M18.0003 11.3334H11.3337V18C11.3337 18.7334 10.7337 19.3334 10.0003 19.3334C9.26699 19.3334 8.66699 18.7334 8.66699 18V11.3334H2.00033C1.26699 11.3334 0.666992 10.7334 0.666992 10C0.666992 9.26669 1.26699 8.66669 2.00033 8.66669H8.66699V2.00002C8.66699 1.26669 9.26699 0.666687 10.0003 0.666687C10.7337 0.666687 11.3337 1.26669 11.3337 2.00002V8.66669H18.0003C18.7337 8.66669 19.3337 9.26669 19.3337 10C19.3337 10.7334 18.7337 11.3334 18.0003 11.3334Z" fill="white"/>
</svg>
