<svg width="458" height="358" viewBox="0 0 458 358" fill="none" xmlns="http://www.w3.org/2000/svg">
<g clip-path="url(#clip0_4807_161)">
<circle opacity="0.1" cx="380.504" cy="29.5032" r="63.4898" fill="#FF8A27"/>
<g opacity="0.85" clip-path="url(#clip1_4807_161)">
<path d="M292.67 247.786L246 230.662L235.876 276.676L246 330.446H292.67V247.786Z" fill="#C57A44"/>
<path d="M159.451 198.906L86.1345 330.446H246V230.662L159.451 198.906Z" fill="#D88A55"/>
<path d="M170.056 330.446L172.229 309.391C157.581 305.228 142.436 300.925 132.527 293.588C125.5 288.386 121.324 279.394 127.428 272.977C132.079 268.088 139.246 265.505 147.546 262.516C155.58 259.622 164.687 256.341 172.159 250.562C182.249 242.759 186.191 231.282 182.449 220.608C181.196 217.035 176.04 205.775 159.451 198.907C142.852 190.922 122.386 192.336 107.542 198.202L3 239.498V323.442L170.056 330.446Z" fill="#EAB065"/>
<path d="M306.827 238.929C306.8 238.938 306.773 238.946 306.745 238.955C306.772 238.947 306.797 238.939 306.824 238.931L306.827 238.929Z" fill="#FFCC7B"/>
<path d="M393.762 326.833L299.881 241.401L246 261.171L235.876 310.68L246 357.225H335.813L393.762 326.833Z" fill="#EAB065"/>
<path d="M75.7738 323.63V357.225H246V261.171L75.7738 323.63Z" fill="#FFCC7B"/>
<path d="M360.85 240.527C344.39 234.025 325.418 231.62 299.881 241.401C280.439 249.471 274.384 262.695 272.911 266.895C268.513 279.441 273.122 292.912 284.939 302.051C293.806 308.908 304.819 312.876 314.537 316.377C325.272 320.243 334.541 323.583 340.801 330.164C348.887 338.665 344.538 349.87 335.813 357.225L489 354.83V291.152L360.85 240.527Z" fill="#EA9B58"/>
<path d="M489 354.83H431.198C369.968 354.83 308.848 349.651 249.536 339.436C248.359 339.233 247.178 339.046 246 338.847L235.875 381.396L246 427.09H489V354.83Z" fill="#FFCC7B"/>
<path d="M60.8017 323.442H3V427.09H246V338.847C185.485 328.633 123.201 323.442 60.8017 323.442Z" fill="#FFDF8E"/>
</g>
</g>
<defs>
<clipPath id="clip0_4807_161">
<rect width="458" height="358" fill="white"/>
</clipPath>
<clipPath id="clip1_4807_161">
<rect width="486" height="280" fill="white" transform="translate(3 147)"/>
</clipPath>
</defs>
</svg>
