<svg width="48" height="38" viewBox="0 0 48 38" fill="none" xmlns="http://www.w3.org/2000/svg">
<rect y="7.81329" width="48" height="30.1867" rx="2.86567" fill="#FFE6A9"/>
<path d="M16.7191 20.3585L23.2357 13.8978C23.6575 13.4796 24.3387 13.483 24.7564 13.9054L31.1452 20.366C31.8163 21.0447 31.3355 22.1963 30.381 22.1963H27.0757C26.8607 22.1963 26.6864 22.3706 26.6864 22.5856V29.7207C26.6864 31.155 25.5237 32.3177 24.0894 32.3177C22.6551 32.3177 21.4923 31.155 21.4923 29.7207V22.5856C21.4923 22.3706 21.3181 22.1963 21.1031 22.1963H17.4757C16.5161 22.1963 16.0377 21.0341 16.7191 20.3585Z" fill="#FFCC7B"/>
<path d="M3.40283 3.58226V8.16834H44.0595L43.081 6.74551C42.0118 5.19069 40.2457 4.26183 38.3587 4.26183H27.5819L24.1212 0.830805C23.5846 0.298716 22.8594 0.000174522 22.1037 0.000174522H6.98492C5.00659 0.000174522 3.40283 1.60393 3.40283 3.58226Z" fill="#FFCC7B"/>
</svg>
