<svg width="41" height="41" viewBox="0 0 41 41" fill="none" xmlns="http://www.w3.org/2000/svg">
<path d="M32.089 23.2479C31.2556 23.2479 30.5723 23.8646 30.4556 24.6813C29.6556 30.2979 24.1723 34.4146 18.089 32.9479C14.339 32.0479 11.5723 29.1646 10.7723 25.3979C9.42228 18.9479 14.3389 13.2479 20.5556 13.2479L20.5556 17.8979C20.5556 18.6479 21.4556 19.0146 21.9723 18.4813L28.2889 12.1646C28.6223 11.8313 28.6223 11.3146 28.2889 10.9813L21.9723 4.66461C21.4556 4.14795 20.5556 4.51461 20.5556 5.26461L20.5556 9.91461C12.3223 9.91461 5.82228 17.3813 7.48895 25.9146C8.48895 31.0979 12.3223 35.0813 17.4723 36.2313C25.5223 38.0313 32.7223 32.5646 33.7556 25.1146C33.9056 24.1313 33.089 23.2479 32.089 23.2479ZM18.7223 28.2479L18.7223 21.1313L18.5723 21.1313L15.6223 22.1813L15.6223 23.3313L17.3056 22.8146L17.3056 28.2479L18.7223 28.2479ZM24.4223 21.2146C24.1223 21.0979 23.8056 21.0479 23.439 21.0479C23.0723 21.0479 22.7556 21.0979 22.4556 21.2146C22.1556 21.3313 21.9056 21.5146 21.7056 21.7646C21.5056 22.0146 21.3223 22.3313 21.2223 22.7146C21.1223 23.0979 21.0556 23.5479 21.0556 24.0813L21.0556 25.3146C21.0556 25.8479 21.1223 26.3146 21.2389 26.6813C21.3556 27.0479 21.5223 27.3813 21.739 27.6313C21.9556 27.8813 22.2056 28.0646 22.5056 28.1813C22.8056 28.2979 23.1223 28.3479 23.489 28.3479C23.8556 28.3479 24.1723 28.2979 24.4723 28.1813C24.7723 28.0646 25.0223 27.8813 25.2223 27.6313C25.4223 27.3813 25.589 27.0646 25.7056 26.6813C25.8223 26.2979 25.8723 25.8479 25.8723 25.3146L25.8723 24.0813C25.8723 23.5479 25.8056 23.0813 25.689 22.7146C25.5723 22.3479 25.4056 22.0146 25.189 21.7646C24.9723 21.5146 24.7056 21.3313 24.4223 21.2146ZM24.439 25.4979C24.439 25.8146 24.4223 26.0813 24.3723 26.2979C24.3223 26.5146 24.2723 26.6979 24.189 26.8313C24.1056 26.9646 24.0056 27.0646 23.8723 27.1146C23.7389 27.1646 23.6056 27.1979 23.4556 27.1979C23.3056 27.1979 23.1556 27.1646 23.039 27.1146C22.9223 27.0646 22.8056 26.9646 22.7223 26.8313C22.639 26.6979 22.5723 26.5146 22.5223 26.2979C22.4723 26.0813 22.4556 25.8146 22.4556 25.4979L22.4556 23.8813C22.4556 23.5646 22.4723 23.2979 22.5223 23.0813C22.5723 22.8646 22.6223 22.6979 22.7223 22.5646C22.8223 22.4313 22.9056 22.3313 23.0389 22.2813C23.1723 22.2313 23.3056 22.1979 23.4556 22.1979C23.6056 22.1979 23.7556 22.2313 23.8723 22.2813C23.9889 22.3313 24.1056 22.4313 24.189 22.5646C24.2723 22.6979 24.339 22.8646 24.389 23.0813C24.439 23.2979 24.4556 23.5646 24.4556 23.8813L24.4556 25.4979L24.439 25.4979Z" fill="#F5F5F5"/>
</svg>
