<svg width="20" height="20" viewBox="0 0 20 20" fill="none" xmlns="http://www.w3.org/2000/svg">
<path d="M12.5 15.94C13.2108 16.1464 13.9473 16.2508 14.6875 16.25C15.8778 16.2517 17.0527 15.9803 18.1217 15.4567C18.1533 14.7098 17.9405 13.9729 17.5157 13.3578C17.0908 12.7427 16.477 12.2828 15.7673 12.0479C15.0575 11.813 14.2906 11.8159 13.5826 12.0562C12.8747 12.2964 12.2644 12.7609 11.8442 13.3792M12.5 15.94V15.9375C12.5 15.01 12.2617 14.1375 11.8442 13.3792M12.5 15.94V16.0283C10.8962 16.9942 9.05885 17.5032 7.18668 17.5C5.24418 17.5 3.42668 16.9625 1.87501 16.0283L1.87418 15.9375C1.87354 14.7579 2.26552 13.6116 2.98833 12.6794C3.71114 11.7472 4.72365 11.082 5.86625 10.7888C7.00885 10.4956 8.21653 10.5911 9.2989 11.0601C10.3813 11.5291 11.2768 12.345 11.8442 13.3792M10 5.3125C10 6.05842 9.70369 6.77379 9.17625 7.30124C8.6488 7.82868 7.93343 8.125 7.18751 8.125C6.44159 8.125 5.72622 7.82868 5.19877 7.30124C4.67133 6.77379 4.37501 6.05842 4.37501 5.3125C4.37501 4.56658 4.67133 3.85121 5.19877 3.32376C5.72622 2.79632 6.44159 2.5 7.18751 2.5C7.93343 2.5 8.6488 2.79632 9.17625 3.32376C9.70369 3.85121 10 4.56658 10 5.3125ZM16.875 7.1875C16.875 7.76766 16.6445 8.32406 16.2343 8.7343C15.8241 9.14453 15.2677 9.375 14.6875 9.375C14.1073 9.375 13.5509 9.14453 13.1407 8.7343C12.7305 8.32406 12.5 7.76766 12.5 7.1875C12.5 6.60734 12.7305 6.05094 13.1407 5.6407C13.5509 5.23047 14.1073 5 14.6875 5C15.2677 5 15.8241 5.23047 16.2343 5.6407C16.6445 6.05094 16.875 6.60734 16.875 7.1875Z" stroke="#4A68FF" stroke-width="1.5" stroke-linecap="round" stroke-linejoin="round"/>
</svg>
