<svg width="458" height="268" viewBox="0 0 458 268" fill="none" xmlns="http://www.w3.org/2000/svg">
<g clip-path="url(#clip0_16170_32)">
<rect width="458" height="268" fill="#536493"/>
<circle opacity="0.08" cx="223.013" cy="237.013" r="130.013" fill="white"/>
<circle opacity="0.2" cx="223.013" cy="237.012" r="94.4272" fill="white"/>
<circle opacity="0.6" cx="223.013" cy="237.012" r="62.7682" fill="white"/>
<path opacity="0.6" d="M117.181 194.07L116.181 193.76C115.731 193.622 115.321 193.362 114.991 193.003C114.66 192.644 114.42 192.199 114.293 191.71L114.007 190.625C113.993 190.587 113.968 190.555 113.937 190.532C113.906 190.509 113.869 190.497 113.831 190.497C113.793 190.497 113.756 190.509 113.725 190.532C113.693 190.555 113.669 190.587 113.654 190.625L113.369 191.71C113.242 192.199 113.002 192.644 112.671 193.003C112.34 193.362 111.93 193.622 111.48 193.76L110.481 194.07C110.443 194.082 110.409 194.107 110.385 194.142C110.361 194.176 110.348 194.218 110.348 194.262C110.348 194.305 110.361 194.347 110.385 194.382C110.409 194.416 110.443 194.441 110.481 194.453L111.48 194.763C111.93 194.901 112.34 195.162 112.671 195.521C113.002 195.879 113.242 196.325 113.369 196.813L113.654 197.898C113.665 197.94 113.688 197.976 113.72 198.002C113.752 198.028 113.791 198.043 113.831 198.043C113.871 198.043 113.909 198.028 113.941 198.002C113.973 197.976 113.996 197.94 114.007 197.898L114.293 196.813C114.42 196.325 114.66 195.879 114.991 195.521C115.321 195.162 115.731 194.901 116.181 194.763L117.181 194.453C117.219 194.441 117.253 194.416 117.277 194.382C117.301 194.347 117.314 194.305 117.314 194.262C117.314 194.218 117.301 194.176 117.277 194.142C117.253 194.107 117.219 194.082 117.181 194.07Z" fill="white"/>
<path opacity="0.6" d="M149.283 35.3461L148.284 35.0361C147.834 34.8984 147.424 34.6376 147.093 34.2786C146.762 33.9197 146.522 33.4747 146.395 32.9861L146.11 31.9013C146.095 31.8633 146.071 31.8308 146.039 31.808C146.008 31.7851 145.971 31.7729 145.933 31.7729C145.895 31.7729 145.858 31.7851 145.827 31.808C145.796 31.8308 145.771 31.8633 145.757 31.9013L145.471 32.9861C145.344 33.4747 145.104 33.9197 144.773 34.2786C144.443 34.6376 144.033 34.8984 143.583 35.0361L142.583 35.3461C142.545 35.3579 142.511 35.383 142.487 35.4176C142.463 35.4521 142.45 35.4942 142.45 35.5375C142.45 35.5808 142.463 35.623 142.487 35.6575C142.511 35.6921 142.545 35.7171 142.583 35.729L143.583 36.039C144.033 36.1767 144.443 36.4375 144.773 36.7964C145.104 37.1554 145.344 37.6004 145.471 38.0889L145.757 39.1738C145.768 39.2155 145.791 39.2521 145.823 39.2782C145.855 39.3043 145.893 39.3185 145.933 39.3185C145.973 39.3185 146.012 39.3043 146.044 39.2782C146.076 39.2521 146.099 39.2155 146.11 39.1738L146.395 38.0889C146.522 37.6004 146.762 37.1554 147.093 36.7964C147.424 36.4375 147.834 36.1767 148.284 36.039L149.283 35.729C149.321 35.7171 149.355 35.6921 149.379 35.6575C149.403 35.623 149.416 35.5808 149.416 35.5375C149.416 35.4942 149.403 35.4521 149.379 35.4176C149.355 35.383 149.321 35.3579 149.283 35.3461Z" fill="white"/>
<path opacity="0.6" d="M328.827 176.829L327.828 176.519C327.378 176.381 326.968 176.12 326.637 175.761C326.306 175.402 326.066 174.957 325.939 174.469L325.653 173.384C325.639 173.346 325.615 173.313 325.583 173.29C325.552 173.268 325.515 173.255 325.477 173.255C325.439 173.255 325.402 173.268 325.371 173.29C325.34 173.313 325.315 173.346 325.301 173.384L325.015 174.469C324.888 174.957 324.648 175.402 324.317 175.761C323.987 176.12 323.577 176.381 323.127 176.519L322.127 176.829C322.089 176.84 322.055 176.865 322.031 176.9C322.007 176.935 321.994 176.977 321.994 177.02C321.994 177.063 322.007 177.105 322.031 177.14C322.055 177.174 322.089 177.2 322.127 177.211L323.127 177.521C323.577 177.659 323.987 177.92 324.317 178.279C324.648 178.638 324.888 179.083 325.015 179.571L325.301 180.656C325.312 180.698 325.335 180.735 325.367 180.761C325.398 180.787 325.437 180.801 325.477 180.801C325.517 180.801 325.556 180.787 325.588 180.761C325.619 180.735 325.643 180.698 325.653 180.656L325.939 179.571C326.066 179.083 326.306 178.638 326.637 178.279C326.968 177.92 327.378 177.659 327.828 177.521L328.827 177.211C328.865 177.2 328.899 177.174 328.923 177.14C328.947 177.105 328.96 177.063 328.96 177.02C328.96 176.977 328.947 176.935 328.923 176.9C328.899 176.865 328.865 176.84 328.827 176.829Z" fill="white"/>
<path opacity="0.6" d="M200.04 79.0605L199.041 78.7504C198.591 78.6127 198.181 78.3519 197.85 77.993C197.519 77.6341 197.279 77.189 197.152 76.7005L196.867 75.6156C196.852 75.5777 196.828 75.5452 196.796 75.5224C196.765 75.4995 196.728 75.4873 196.69 75.4873C196.652 75.4873 196.616 75.4995 196.584 75.5224C196.553 75.5452 196.528 75.5777 196.514 75.6156L196.228 76.7005C196.101 77.189 195.861 77.6341 195.531 77.993C195.2 78.3519 194.79 78.6127 194.34 78.7504L193.34 79.0605C193.302 79.0723 193.268 79.0974 193.244 79.1319C193.22 79.1665 193.207 79.2086 193.207 79.2519C193.207 79.2952 193.22 79.3373 193.244 79.3719C193.268 79.4064 193.302 79.4315 193.34 79.4433L194.34 79.7533C194.79 79.8911 195.2 80.1519 195.531 80.5108C195.861 80.8697 196.101 81.3148 196.228 81.8033L196.514 82.8882C196.525 82.9298 196.548 82.9665 196.58 82.9926C196.612 83.0187 196.65 83.0328 196.69 83.0328C196.73 83.0328 196.769 83.0187 196.801 82.9926C196.833 82.9665 196.856 82.9298 196.867 82.8882L197.152 81.8033C197.279 81.3148 197.519 80.8697 197.85 80.5108C198.181 80.1519 198.591 79.8911 199.041 79.7533L200.04 79.4433C200.079 79.4315 200.112 79.4064 200.136 79.3719C200.16 79.3373 200.173 79.2952 200.173 79.2519C200.173 79.2086 200.16 79.1665 200.136 79.1319C200.112 79.0974 200.079 79.0723 200.04 79.0605Z" fill="white"/>
<path opacity="0.6" d="M346.175 86.6064L345.176 86.2963C344.726 86.1586 344.316 85.8978 343.985 85.5389C343.655 85.18 343.414 84.7349 343.287 84.2464L343.002 83.1615C342.988 83.1236 342.963 83.0911 342.932 83.0682C342.9 83.0454 342.863 83.0332 342.826 83.0332C342.788 83.0332 342.751 83.0454 342.719 83.0682C342.688 83.0911 342.664 83.1236 342.649 83.1615L342.364 84.2464C342.237 84.7349 341.996 85.18 341.666 85.5389C341.335 85.8978 340.925 86.1586 340.475 86.2963L339.476 86.6064C339.437 86.6182 339.404 86.6433 339.379 86.6778C339.355 86.7124 339.342 86.7545 339.342 86.7978C339.342 86.8411 339.355 86.8832 339.379 86.9178C339.404 86.9523 339.437 86.9774 339.476 86.9892L340.475 87.2992C340.925 87.437 341.335 87.6978 341.666 88.0567C341.996 88.4156 342.237 88.8606 342.364 89.3492L342.649 90.4341C342.66 90.4757 342.683 90.5124 342.715 90.5385C342.747 90.5646 342.786 90.5787 342.826 90.5787C342.865 90.5787 342.904 90.5646 342.936 90.5385C342.968 90.5124 342.991 90.4757 343.002 90.4341L343.287 89.3492C343.414 88.8606 343.655 88.4156 343.985 88.0567C344.316 87.6978 344.726 87.437 345.176 87.2992L346.175 86.9892C346.214 86.9774 346.248 86.9523 346.272 86.9178C346.296 86.8832 346.309 86.8411 346.309 86.7978C346.309 86.7545 346.296 86.7124 346.272 86.6778C346.248 86.6433 346.214 86.6182 346.175 86.6064Z" fill="white"/>
<path opacity="0.6" d="M297.677 31.5732L296.678 31.2631C296.228 31.1254 295.818 30.8646 295.487 30.5057C295.156 30.1468 294.916 29.7017 294.789 29.2132L294.504 28.1283C294.489 28.0904 294.465 28.0579 294.434 28.035C294.402 28.0122 294.365 28 294.327 28C294.29 28 294.253 28.0122 294.221 28.035C294.19 28.0579 294.165 28.0904 294.151 28.1283L293.865 29.2132C293.739 29.7017 293.498 30.1468 293.168 30.5057C292.837 30.8646 292.427 31.1254 291.977 31.2631L290.977 31.5732C290.939 31.585 290.905 31.6101 290.881 31.6446C290.857 31.6792 290.844 31.7213 290.844 31.7646C290.844 31.8079 290.857 31.85 290.881 31.8846C290.905 31.9191 290.939 31.9442 290.977 31.956L291.977 32.266C292.427 32.4038 292.837 32.6646 293.168 33.0235C293.498 33.3824 293.739 33.8274 293.865 34.316L294.151 35.4009C294.162 35.4425 294.185 35.4792 294.217 35.5053C294.249 35.5314 294.287 35.5455 294.327 35.5455C294.367 35.5455 294.406 35.5314 294.438 35.5053C294.47 35.4792 294.493 35.4425 294.504 35.4009L294.789 34.316C294.916 33.8274 295.156 33.3824 295.487 33.0235C295.818 32.6646 296.228 32.4038 296.678 32.266L297.677 31.956C297.716 31.9442 297.749 31.9191 297.773 31.8846C297.797 31.85 297.811 31.8079 297.811 31.7646C297.811 31.7213 297.797 31.6792 297.773 31.6446C297.749 31.6101 297.716 31.585 297.677 31.5732Z" fill="white"/>
<path opacity="0.6" d="M383.935 175.346L382.936 175.036C382.486 174.898 382.076 174.638 381.745 174.279C381.415 173.92 381.174 173.475 381.047 172.986L380.762 171.901C380.748 171.863 380.723 171.831 380.692 171.808C380.66 171.785 380.623 171.773 380.586 171.773C380.548 171.773 380.511 171.785 380.479 171.808C380.448 171.831 380.424 171.863 380.409 171.901L380.124 172.986C379.997 173.475 379.756 173.92 379.426 174.279C379.095 174.638 378.685 174.898 378.235 175.036L377.236 175.346C377.197 175.358 377.164 175.383 377.139 175.418C377.115 175.452 377.102 175.494 377.102 175.538C377.102 175.581 377.115 175.623 377.139 175.658C377.164 175.692 377.197 175.717 377.236 175.729L378.235 176.039C378.685 176.177 379.095 176.438 379.426 176.796C379.756 177.155 379.997 177.6 380.124 178.089L380.409 179.174C380.42 179.215 380.443 179.252 380.475 179.278C380.507 179.304 380.546 179.318 380.586 179.318C380.625 179.318 380.664 179.304 380.696 179.278C380.728 179.252 380.751 179.215 380.762 179.174L381.047 178.089C381.174 177.6 381.415 177.155 381.745 176.796C382.076 176.438 382.486 176.177 382.936 176.039L383.935 175.729C383.974 175.717 384.008 175.692 384.032 175.658C384.056 175.623 384.069 175.581 384.069 175.538C384.069 175.494 384.056 175.452 384.032 175.418C384.008 175.383 383.974 175.358 383.935 175.346Z" fill="white"/>
<path opacity="0.6" d="M434.693 219.06L433.693 218.75C433.243 218.613 432.833 218.352 432.502 217.993C432.172 217.634 431.931 217.189 431.805 216.7L431.519 215.616C431.505 215.578 431.48 215.545 431.449 215.522C431.417 215.5 431.38 215.487 431.343 215.487C431.305 215.487 431.268 215.5 431.236 215.522C431.205 215.545 431.181 215.578 431.166 215.616L430.881 216.7C430.754 217.189 430.514 217.634 430.183 217.993C429.852 218.352 429.442 218.613 428.992 218.75L427.993 219.06C427.954 219.072 427.921 219.097 427.897 219.132C427.873 219.166 427.859 219.209 427.859 219.252C427.859 219.295 427.873 219.337 427.897 219.372C427.921 219.406 427.954 219.431 427.993 219.443L428.992 219.753C429.442 219.891 429.852 220.152 430.183 220.511C430.514 220.87 430.754 221.315 430.881 221.803L431.166 222.888C431.177 222.93 431.2 222.966 431.232 222.993C431.264 223.019 431.303 223.033 431.343 223.033C431.383 223.033 431.421 223.019 431.453 222.993C431.485 222.966 431.508 222.93 431.519 222.888L431.805 221.803C431.931 221.315 432.172 220.87 432.502 220.511C432.833 220.152 433.243 219.891 433.693 219.753L434.693 219.443C434.731 219.431 434.765 219.406 434.789 219.372C434.813 219.337 434.826 219.295 434.826 219.252C434.826 219.209 434.813 219.166 434.789 219.132C434.765 219.097 434.731 219.072 434.693 219.06Z" fill="white"/>
<path opacity="0.6" d="M27.4794 192.829L26.4799 192.519C26.0299 192.381 25.6199 192.12 25.2892 191.761C24.9586 191.402 24.7183 190.957 24.5914 190.469L24.3058 189.384C24.2915 189.346 24.267 189.313 24.2356 189.29C24.2042 189.268 24.1673 189.255 24.1295 189.255C24.0917 189.255 24.0547 189.268 24.0233 189.29C23.9919 189.313 23.9675 189.346 23.9531 189.384L23.6675 190.469C23.5407 190.957 23.3004 191.402 22.9697 191.761C22.6391 192.12 22.2291 192.381 21.779 192.519L20.7796 192.829C20.7412 192.84 20.7075 192.865 20.6834 192.9C20.6594 192.935 20.6464 192.977 20.6464 193.02C20.6464 193.063 20.6594 193.105 20.6834 193.14C20.7075 193.174 20.7412 193.2 20.7796 193.211L21.779 193.521C22.2291 193.659 22.6391 193.92 22.9697 194.279C23.3004 194.638 23.5407 195.083 23.6675 195.571L23.9531 196.656C23.964 196.698 23.9872 196.735 24.019 196.761C24.0508 196.787 24.0896 196.801 24.1295 196.801C24.1694 196.801 24.2082 196.787 24.24 196.761C24.2718 196.735 24.295 196.698 24.3058 196.656L24.5914 195.571C24.7183 195.083 24.9586 194.638 25.2892 194.279C25.6199 193.92 26.0299 193.659 26.4799 193.521L27.4794 193.211C27.5177 193.2 27.5515 193.174 27.5756 193.14C27.5996 193.105 27.6126 193.063 27.6126 193.02C27.6126 192.977 27.5996 192.935 27.5756 192.9C27.5515 192.865 27.5177 192.84 27.4794 192.829Z" fill="white"/>
<path opacity="0.6" d="M44.8278 102.606L43.8283 102.296C43.3783 102.159 42.9683 101.898 42.6376 101.539C42.307 101.18 42.0667 100.735 41.9398 100.246L41.6542 99.1615C41.6399 99.1236 41.6154 99.0911 41.584 99.0682C41.5526 99.0454 41.5157 99.0332 41.4779 99.0332C41.4401 99.0332 41.4031 99.0454 41.3717 99.0682C41.3403 99.0911 41.3159 99.1236 41.3015 99.1615L41.0159 100.246C40.889 100.735 40.6488 101.18 40.3181 101.539C39.9875 101.898 39.5775 102.159 39.1274 102.296L38.128 102.606C38.0896 102.618 38.0559 102.643 38.0318 102.678C38.0078 102.712 37.9948 102.754 37.9948 102.798C37.9948 102.841 38.0078 102.883 38.0318 102.918C38.0559 102.952 38.0896 102.977 38.128 102.989L39.1274 103.299C39.5775 103.437 39.9875 103.698 40.3181 104.057C40.6488 104.416 40.889 104.861 41.0159 105.349L41.3015 106.434C41.3124 106.476 41.3355 106.512 41.3674 106.538C41.3992 106.565 41.438 106.579 41.4779 106.579C41.5178 106.579 41.5566 106.565 41.5884 106.538C41.6202 106.512 41.6433 106.476 41.6542 106.434L41.9398 105.349C42.0667 104.861 42.307 104.416 42.6376 104.057C42.9683 103.698 43.3783 103.437 43.8283 103.299L44.8278 102.989C44.8661 102.977 44.8999 102.952 44.924 102.918C44.948 102.883 44.961 102.841 44.961 102.798C44.961 102.754 44.948 102.712 44.924 102.678C44.8999 102.643 44.8661 102.618 44.8278 102.606Z" fill="white"/>
<path d="M38.248 136.368C38.1134 147.818 37.7044 148.275 27.0933 148.831C37.7413 149.387 38.1808 149.844 39.0777 161.294C39.2124 149.844 39.6214 149.387 50.2324 148.831C39.5844 148.275 39.145 147.818 38.248 136.368Z" fill="#FFD164"/>
<path d="M405.248 49.3677C405.113 60.8184 404.704 61.2754 394.093 61.831C404.741 62.3867 405.181 62.8437 406.078 74.2944C406.212 62.8437 406.621 62.3867 417.232 61.831C406.584 61.2754 406.145 60.8184 405.248 49.3677Z" fill="#FFD164"/>
<path d="M120.534 113.459H117.159L123.304 96.0044H127.208L133.361 113.459H129.986L125.324 99.584H125.188L120.534 113.459ZM120.645 106.615H129.85V109.155H120.645V106.615ZM138.609 96.0044V113.459H135.524V96.0044H138.609ZM147.475 118.641C146.367 118.641 145.415 118.49 144.62 118.189C143.824 117.894 143.185 117.496 142.702 116.996C142.219 116.496 141.884 115.942 141.696 115.334L144.475 114.661C144.6 114.916 144.782 115.169 145.02 115.419C145.259 115.675 145.58 115.885 145.983 116.05C146.392 116.22 146.907 116.306 147.526 116.306C148.401 116.306 149.125 116.093 149.699 115.666C150.273 115.246 150.56 114.553 150.56 113.587V111.107H150.407C150.248 111.425 150.015 111.752 149.708 112.087C149.407 112.422 149.006 112.703 148.506 112.931C148.012 113.158 147.39 113.271 146.64 113.271C145.634 113.271 144.722 113.036 143.904 112.564C143.091 112.087 142.444 111.377 141.961 110.433C141.483 109.485 141.245 108.297 141.245 106.871C141.245 105.433 141.483 104.22 141.961 103.232C142.444 102.237 143.094 101.485 143.912 100.973C144.731 100.456 145.642 100.198 146.648 100.198C147.415 100.198 148.046 100.328 148.54 100.59C149.04 100.845 149.438 101.155 149.733 101.519C150.029 101.877 150.253 102.215 150.407 102.533H150.577V100.368H153.62V113.672C153.62 114.791 153.353 115.718 152.819 116.45C152.284 117.183 151.554 117.732 150.628 118.095C149.702 118.459 148.651 118.641 147.475 118.641ZM147.5 110.851C148.154 110.851 148.711 110.692 149.171 110.374C149.631 110.056 149.981 109.598 150.219 109.002C150.458 108.405 150.577 107.689 150.577 106.854C150.577 106.03 150.458 105.308 150.219 104.689C149.986 104.07 149.64 103.59 149.179 103.249C148.725 102.902 148.165 102.729 147.5 102.729C146.813 102.729 146.239 102.908 145.779 103.266C145.319 103.624 144.972 104.115 144.739 104.74C144.506 105.36 144.39 106.064 144.39 106.854C144.39 107.655 144.506 108.357 144.739 108.959C144.978 109.556 145.327 110.021 145.787 110.357C146.253 110.686 146.824 110.851 147.5 110.851ZM165.125 107.953V100.368H168.211V113.459H165.219V111.132H165.083C164.787 111.865 164.302 112.465 163.625 112.931C162.955 113.396 162.128 113.629 161.145 113.629C160.287 113.629 159.529 113.439 158.87 113.058C158.216 112.672 157.705 112.112 157.336 111.379C156.966 110.641 156.782 109.749 156.782 108.703V100.368H159.867V108.226C159.867 109.056 160.094 109.715 160.549 110.203C161.003 110.692 161.6 110.936 162.338 110.936C162.793 110.936 163.233 110.825 163.659 110.604C164.086 110.382 164.435 110.053 164.708 109.615C164.986 109.172 165.125 108.618 165.125 107.953ZM171.383 113.459V100.368H174.332V102.593H174.485C174.758 101.843 175.21 101.257 175.841 100.837C176.471 100.411 177.224 100.198 178.099 100.198C178.985 100.198 179.733 100.414 180.341 100.845C180.954 101.271 181.386 101.854 181.636 102.593H181.772C182.062 101.865 182.551 101.286 183.238 100.854C183.931 100.416 184.753 100.198 185.701 100.198C186.906 100.198 187.889 100.578 188.65 101.34C189.412 102.101 189.792 103.212 189.792 104.672V113.459H186.699V105.149C186.699 104.337 186.483 103.743 186.051 103.368C185.619 102.987 185.091 102.797 184.466 102.797C183.721 102.797 183.139 103.03 182.718 103.496C182.304 103.956 182.096 104.556 182.096 105.294V113.459H179.071V105.021C179.071 104.345 178.866 103.806 178.457 103.402C178.054 102.999 177.525 102.797 176.872 102.797C176.429 102.797 176.025 102.911 175.662 103.138C175.298 103.36 175.008 103.675 174.792 104.084C174.576 104.487 174.468 104.959 174.468 105.499V113.459H171.383ZM196.689 113.723C195.86 113.723 195.113 113.575 194.448 113.28C193.789 112.979 193.266 112.536 192.88 111.95C192.499 111.365 192.309 110.644 192.309 109.786C192.309 109.047 192.445 108.436 192.718 107.953C192.99 107.47 193.363 107.084 193.834 106.794C194.306 106.504 194.837 106.286 195.428 106.138C196.025 105.985 196.641 105.874 197.277 105.806C198.044 105.726 198.667 105.655 199.144 105.593C199.621 105.524 199.968 105.422 200.184 105.286C200.405 105.144 200.516 104.925 200.516 104.629V104.578C200.516 103.936 200.326 103.439 199.945 103.087C199.564 102.735 199.016 102.558 198.3 102.558C197.544 102.558 196.945 102.723 196.502 103.053C196.064 103.382 195.769 103.771 195.615 104.22L192.735 103.811C192.962 103.016 193.337 102.351 193.86 101.817C194.382 101.277 195.022 100.874 195.777 100.607C196.533 100.334 197.368 100.198 198.283 100.198C198.914 100.198 199.542 100.271 200.167 100.419C200.792 100.567 201.363 100.811 201.88 101.152C202.397 101.487 202.811 101.945 203.124 102.524C203.442 103.104 203.601 103.828 203.601 104.698V113.459H200.635V111.661H200.533C200.346 112.024 200.081 112.365 199.74 112.683C199.405 112.996 198.982 113.249 198.471 113.442C197.965 113.629 197.371 113.723 196.689 113.723ZM197.49 111.456C198.11 111.456 198.647 111.334 199.101 111.09C199.556 110.84 199.905 110.51 200.15 110.101C200.4 109.692 200.525 109.246 200.525 108.763V107.22C200.428 107.3 200.263 107.374 200.03 107.442C199.803 107.51 199.547 107.57 199.263 107.621C198.979 107.672 198.698 107.718 198.419 107.757C198.141 107.797 197.9 107.831 197.695 107.86C197.235 107.922 196.823 108.024 196.459 108.166C196.096 108.308 195.809 108.507 195.598 108.763C195.388 109.013 195.283 109.337 195.283 109.735C195.283 110.303 195.49 110.732 195.905 111.021C196.32 111.311 196.848 111.456 197.49 111.456ZM212.657 118.368V100.368H215.691V102.533H215.87C216.029 102.215 216.253 101.877 216.543 101.519C216.833 101.155 217.225 100.845 217.719 100.59C218.213 100.328 218.844 100.198 219.611 100.198C220.623 100.198 221.534 100.456 222.347 100.973C223.165 101.485 223.813 102.243 224.29 103.249C224.773 104.249 225.015 105.476 225.015 106.931C225.015 108.368 224.779 109.59 224.307 110.595C223.836 111.601 223.194 112.368 222.381 112.896C221.569 113.425 220.648 113.689 219.62 113.689C218.87 113.689 218.248 113.564 217.753 113.314C217.259 113.064 216.861 112.763 216.56 112.411C216.265 112.053 216.034 111.715 215.87 111.396H215.742V118.368H212.657ZM215.682 106.914C215.682 107.76 215.802 108.502 216.04 109.138C216.284 109.774 216.634 110.271 217.088 110.629C217.549 110.982 218.106 111.158 218.759 111.158C219.441 111.158 220.012 110.976 220.472 110.612C220.932 110.243 221.279 109.74 221.512 109.104C221.75 108.462 221.87 107.732 221.87 106.914C221.87 106.101 221.753 105.379 221.52 104.749C221.287 104.118 220.941 103.624 220.481 103.266C220.02 102.908 219.446 102.729 218.759 102.729C218.1 102.729 217.54 102.902 217.08 103.249C216.62 103.595 216.27 104.081 216.032 104.706C215.799 105.331 215.682 106.067 215.682 106.914ZM233.452 113.715C232.14 113.715 231.006 113.442 230.052 112.896C229.103 112.345 228.373 111.567 227.861 110.561C227.35 109.55 227.094 108.36 227.094 106.99C227.094 105.644 227.35 104.462 227.861 103.445C228.378 102.422 229.1 101.627 230.026 101.058C230.952 100.485 232.04 100.198 233.29 100.198C234.097 100.198 234.858 100.328 235.574 100.59C236.296 100.845 236.932 101.243 237.483 101.783C238.04 102.323 238.478 103.01 238.796 103.845C239.114 104.675 239.273 105.664 239.273 106.811V107.757H228.543V105.678H236.316C236.31 105.087 236.182 104.561 235.932 104.101C235.682 103.635 235.333 103.269 234.884 103.002C234.441 102.735 233.924 102.601 233.333 102.601C232.702 102.601 232.148 102.754 231.671 103.061C231.194 103.362 230.821 103.76 230.554 104.254C230.293 104.743 230.159 105.28 230.154 105.865V107.681C230.154 108.442 230.293 109.095 230.571 109.641C230.85 110.181 231.239 110.595 231.739 110.885C232.239 111.169 232.824 111.311 233.495 111.311C233.944 111.311 234.35 111.249 234.713 111.124C235.077 110.993 235.392 110.803 235.659 110.553C235.927 110.303 236.128 109.993 236.265 109.624L239.145 109.948C238.963 110.709 238.617 111.374 238.106 111.942C237.6 112.504 236.952 112.942 236.162 113.254C235.373 113.561 234.469 113.715 233.452 113.715ZM241.883 113.459V100.368H244.875V102.55H245.011C245.25 101.794 245.659 101.212 246.238 100.803C246.824 100.388 247.491 100.181 248.241 100.181C248.412 100.181 248.602 100.189 248.812 100.206C249.028 100.218 249.207 100.237 249.349 100.266V103.104C249.218 103.058 249.011 103.019 248.727 102.985C248.449 102.945 248.179 102.925 247.917 102.925C247.355 102.925 246.849 103.047 246.4 103.291C245.957 103.53 245.608 103.862 245.352 104.289C245.096 104.715 244.968 105.206 244.968 105.763V113.459H241.883ZM256.553 118.641C255.445 118.641 254.493 118.49 253.698 118.189C252.902 117.894 252.263 117.496 251.78 116.996C251.297 116.496 250.962 115.942 250.775 115.334L253.553 114.661C253.678 114.916 253.86 115.169 254.098 115.419C254.337 115.675 254.658 115.885 255.061 116.05C255.471 116.22 255.985 116.306 256.604 116.306C257.479 116.306 258.204 116.093 258.777 115.666C259.351 115.246 259.638 114.553 259.638 113.587V111.107H259.485C259.326 111.425 259.093 111.752 258.786 112.087C258.485 112.422 258.084 112.703 257.584 112.931C257.09 113.158 256.468 113.271 255.718 113.271C254.712 113.271 253.8 113.036 252.982 112.564C252.169 112.087 251.522 111.377 251.039 110.433C250.561 109.485 250.323 108.297 250.323 106.871C250.323 105.433 250.561 104.22 251.039 103.232C251.522 102.237 252.172 101.485 252.99 100.973C253.809 100.456 254.721 100.198 255.726 100.198C256.493 100.198 257.124 100.328 257.618 100.59C258.118 100.845 258.516 101.155 258.811 101.519C259.107 101.877 259.331 102.215 259.485 102.533H259.655V100.368H262.698V113.672C262.698 114.791 262.431 115.718 261.897 116.45C261.363 117.183 260.632 117.732 259.706 118.095C258.78 118.459 257.729 118.641 256.553 118.641ZM256.579 110.851C257.232 110.851 257.789 110.692 258.249 110.374C258.709 110.056 259.059 109.598 259.297 109.002C259.536 108.405 259.655 107.689 259.655 106.854C259.655 106.03 259.536 105.308 259.297 104.689C259.064 104.07 258.718 103.59 258.257 103.249C257.803 102.902 257.243 102.729 256.579 102.729C255.891 102.729 255.317 102.908 254.857 103.266C254.397 103.624 254.05 104.115 253.817 104.74C253.584 105.36 253.468 106.064 253.468 106.854C253.468 107.655 253.584 108.357 253.817 108.959C254.056 109.556 254.405 110.021 254.865 110.357C255.331 110.686 255.902 110.851 256.579 110.851ZM274.204 107.953V100.368H277.289V113.459H274.297V111.132H274.161C273.865 111.865 273.38 112.465 272.704 112.931C272.033 113.396 271.206 113.629 270.223 113.629C269.365 113.629 268.607 113.439 267.948 113.058C267.294 112.672 266.783 112.112 266.414 111.379C266.044 110.641 265.86 109.749 265.86 108.703V100.368H268.945V108.226C268.945 109.056 269.172 109.715 269.627 110.203C270.081 110.692 270.678 110.936 271.417 110.936C271.871 110.936 272.311 110.825 272.738 110.604C273.164 110.382 273.513 110.053 273.786 109.615C274.064 109.172 274.204 108.618 274.204 107.953ZM283.547 105.789V113.459H280.461V100.368H283.41V102.593H283.564C283.865 101.86 284.345 101.277 285.004 100.845C285.669 100.414 286.49 100.198 287.467 100.198C288.37 100.198 289.157 100.391 289.828 100.777C290.504 101.164 291.027 101.723 291.396 102.456C291.771 103.189 291.956 104.078 291.95 105.124V113.459H288.865V105.601C288.865 104.726 288.637 104.041 288.183 103.547C287.734 103.053 287.112 102.806 286.316 102.806C285.777 102.806 285.297 102.925 284.876 103.164C284.461 103.396 284.135 103.735 283.896 104.178C283.663 104.621 283.547 105.158 283.547 105.789ZM301.623 100.368V102.754H294.098V100.368H301.623ZM295.956 97.2317H299.041V109.521C299.041 109.936 299.103 110.254 299.228 110.476C299.359 110.692 299.53 110.84 299.74 110.919C299.95 110.999 300.183 111.039 300.439 111.039C300.632 111.039 300.808 111.024 300.967 110.996C301.132 110.968 301.257 110.942 301.342 110.919L301.862 113.331C301.697 113.388 301.461 113.45 301.155 113.519C300.853 113.587 300.484 113.627 300.047 113.638C299.274 113.661 298.578 113.544 297.958 113.289C297.339 113.027 296.848 112.624 296.484 112.078C296.126 111.533 295.95 110.851 295.956 110.033V97.2317ZM307.971 113.723C307.141 113.723 306.394 113.575 305.729 113.28C305.07 112.979 304.547 112.536 304.161 111.95C303.78 111.365 303.59 110.644 303.59 109.786C303.59 109.047 303.726 108.436 303.999 107.953C304.272 107.47 304.644 107.084 305.115 106.794C305.587 106.504 306.118 106.286 306.709 106.138C307.306 105.985 307.922 105.874 308.559 105.806C309.326 105.726 309.948 105.655 310.425 105.593C310.902 105.524 311.249 105.422 311.465 105.286C311.686 105.144 311.797 104.925 311.797 104.629V104.578C311.797 103.936 311.607 103.439 311.226 103.087C310.846 102.735 310.297 102.558 309.581 102.558C308.826 102.558 308.226 102.723 307.783 103.053C307.346 103.382 307.05 103.771 306.897 104.22L304.016 103.811C304.243 103.016 304.618 102.351 305.141 101.817C305.664 101.277 306.303 100.874 307.059 100.607C307.814 100.334 308.65 100.198 309.564 100.198C310.195 100.198 310.823 100.271 311.448 100.419C312.073 100.567 312.644 100.811 313.161 101.152C313.678 101.487 314.093 101.945 314.405 102.524C314.723 103.104 314.882 103.828 314.882 104.698V113.459H311.917V111.661H311.814C311.627 112.024 311.363 112.365 311.022 112.683C310.686 112.996 310.263 113.249 309.752 113.442C309.246 113.629 308.652 113.723 307.971 113.723ZM308.772 111.456C309.391 111.456 309.928 111.334 310.382 111.09C310.837 110.84 311.186 110.51 311.431 110.101C311.681 109.692 311.806 109.246 311.806 108.763V107.22C311.709 107.3 311.544 107.374 311.311 107.442C311.084 107.51 310.829 107.57 310.544 107.621C310.26 107.672 309.979 107.718 309.701 107.757C309.422 107.797 309.181 107.831 308.976 107.86C308.516 107.922 308.104 108.024 307.74 108.166C307.377 108.308 307.09 108.507 306.88 108.763C306.669 109.013 306.564 109.337 306.564 109.735C306.564 110.303 306.772 110.732 307.186 111.021C307.601 111.311 308.13 111.456 308.772 111.456ZM320.934 108.328V108.107C320.939 107.078 321.036 106.26 321.223 105.652C321.417 105.044 321.689 104.556 322.042 104.186C322.394 103.811 322.823 103.468 323.329 103.155C323.675 102.939 323.985 102.703 324.257 102.448C324.536 102.186 324.755 101.896 324.914 101.578C325.073 101.254 325.152 100.894 325.152 100.496C325.152 100.047 325.047 99.6578 324.837 99.3283C324.627 98.9988 324.343 98.7431 323.985 98.5613C323.632 98.3794 323.238 98.2885 322.8 98.2885C322.397 98.2885 322.013 98.3766 321.65 98.5527C321.292 98.7232 320.993 98.9846 320.755 99.3368C320.522 99.6834 320.391 100.124 320.363 100.658H317.329C317.357 99.5783 317.618 98.6749 318.113 97.9476C318.613 97.2203 319.272 96.6749 320.09 96.3113C320.914 95.9476 321.823 95.7658 322.817 95.7658C323.902 95.7658 324.857 95.9561 325.681 96.3368C326.51 96.7175 327.155 97.2601 327.615 97.9647C328.081 98.6635 328.314 99.4931 328.314 100.453C328.314 101.101 328.209 101.681 327.999 102.192C327.794 102.703 327.502 103.158 327.121 103.556C326.74 103.953 326.289 104.308 325.766 104.621C325.306 104.905 324.928 105.2 324.632 105.507C324.343 105.814 324.127 106.175 323.985 106.59C323.848 106.999 323.777 107.504 323.772 108.107V108.328H320.934ZM322.417 113.646C321.905 113.646 321.465 113.465 321.096 113.101C320.726 112.737 320.542 112.294 320.542 111.771C320.542 111.26 320.726 110.823 321.096 110.459C321.465 110.095 321.905 109.914 322.417 109.914C322.922 109.914 323.36 110.095 323.729 110.459C324.104 110.823 324.292 111.26 324.292 111.771C324.292 112.118 324.204 112.433 324.027 112.718C323.857 113.002 323.63 113.229 323.346 113.399C323.067 113.564 322.757 113.646 322.417 113.646Z" fill="white"/>
<rect x="113.513" y="135.459" width="219" height="33" rx="16.5" fill="#FFD6A0"/>
<path d="M138.812 157.459V147.277H145.126V148.6H140.348V151.702H144.674V153.019H140.348V157.459H138.812ZM149.091 157.628C148.607 157.628 148.169 157.539 147.778 157.36C147.387 157.177 147.077 156.914 146.849 156.569C146.623 156.224 146.511 155.802 146.511 155.301C146.511 154.87 146.593 154.516 146.759 154.237C146.925 153.959 147.149 153.739 147.43 153.576C147.712 153.414 148.027 153.291 148.375 153.208C148.723 153.125 149.078 153.062 149.439 153.019C149.896 152.966 150.267 152.923 150.553 152.89C150.838 152.854 151.045 152.796 151.174 152.716C151.303 152.637 151.368 152.507 151.368 152.328V152.294C151.368 151.859 151.245 151.523 151 151.284C150.758 151.046 150.397 150.926 149.916 150.926C149.416 150.926 149.021 151.037 148.733 151.259C148.448 151.478 148.251 151.722 148.141 151.99L146.744 151.672C146.91 151.208 147.152 150.834 147.47 150.548C147.792 150.26 148.161 150.051 148.579 149.922C148.996 149.789 149.436 149.723 149.896 149.723C150.201 149.723 150.524 149.76 150.866 149.833C151.21 149.902 151.532 150.031 151.83 150.22C152.132 150.409 152.379 150.679 152.571 151.031C152.763 151.379 152.859 151.831 152.859 152.388V157.459H151.408V156.415H151.348C151.252 156.607 151.108 156.796 150.915 156.982C150.723 157.167 150.476 157.321 150.175 157.444C149.873 157.567 149.512 157.628 149.091 157.628ZM149.414 156.435C149.825 156.435 150.176 156.354 150.468 156.191C150.763 156.029 150.987 155.817 151.139 155.555C151.295 155.29 151.373 155.006 151.373 154.705V153.72C151.32 153.773 151.217 153.823 151.065 153.869C150.915 153.913 150.745 153.951 150.553 153.984C150.36 154.014 150.173 154.042 149.991 154.068C149.808 154.092 149.656 154.111 149.533 154.128C149.245 154.164 148.981 154.226 148.743 154.312C148.508 154.398 148.319 154.522 148.176 154.685C148.037 154.844 147.967 155.056 147.967 155.321C147.967 155.689 148.103 155.968 148.375 156.156C148.647 156.342 148.993 156.435 149.414 156.435ZM158.056 157.613C157.317 157.613 156.68 157.446 156.147 157.111C155.616 156.773 155.209 156.307 154.924 155.714C154.639 155.121 154.496 154.441 154.496 153.676C154.496 152.9 154.642 152.216 154.934 151.622C155.225 151.026 155.636 150.56 156.167 150.225C156.697 149.891 157.322 149.723 158.041 149.723C158.621 149.723 159.138 149.831 159.592 150.046C160.046 150.258 160.412 150.557 160.691 150.941C160.973 151.326 161.14 151.775 161.193 152.289H159.746C159.667 151.931 159.484 151.622 159.199 151.364C158.918 151.105 158.54 150.976 158.066 150.976C157.652 150.976 157.289 151.085 156.977 151.304C156.669 151.52 156.429 151.828 156.256 152.229C156.084 152.627 155.998 153.097 155.998 153.641C155.998 154.198 156.082 154.678 156.251 155.083C156.42 155.487 156.659 155.8 156.967 156.022C157.279 156.244 157.645 156.355 158.066 156.355C158.348 156.355 158.603 156.304 158.831 156.201C159.063 156.095 159.257 155.944 159.413 155.749C159.572 155.553 159.683 155.318 159.746 155.043H161.193C161.14 155.537 160.979 155.977 160.711 156.365C160.442 156.753 160.083 157.058 159.632 157.28C159.184 157.502 158.659 157.613 158.056 157.613ZM157.519 157.419H158.493L158.414 157.827C158.702 157.873 158.954 157.989 159.17 158.175C159.385 158.36 159.493 158.641 159.493 159.015C159.496 159.463 159.302 159.825 158.911 160.104C158.523 160.382 157.961 160.521 157.226 160.521L157.196 159.691C157.54 159.691 157.819 159.642 158.031 159.542C158.246 159.443 158.356 159.282 158.359 159.06C158.362 158.838 158.28 158.682 158.111 158.593C157.945 158.503 157.68 158.44 157.315 158.404L157.519 157.419ZM165.005 157.628C164.521 157.628 164.084 157.539 163.692 157.36C163.301 157.177 162.991 156.914 162.763 156.569C162.537 156.224 162.425 155.802 162.425 155.301C162.425 154.87 162.508 154.516 162.673 154.237C162.839 153.959 163.063 153.739 163.344 153.576C163.626 153.414 163.941 153.291 164.289 153.208C164.637 153.125 164.992 153.062 165.353 153.019C165.81 152.966 166.182 152.923 166.467 152.89C166.752 152.854 166.959 152.796 167.088 152.716C167.217 152.637 167.282 152.507 167.282 152.328V152.294C167.282 151.859 167.159 151.523 166.914 151.284C166.672 151.046 166.311 150.926 165.83 150.926C165.33 150.926 164.935 151.037 164.647 151.259C164.362 151.478 164.165 151.722 164.055 151.99L162.658 151.672C162.824 151.208 163.066 150.834 163.384 150.548C163.706 150.26 164.075 150.051 164.493 149.922C164.91 149.789 165.35 149.723 165.81 149.723C166.115 149.723 166.438 149.76 166.78 149.833C167.124 149.902 167.446 150.031 167.744 150.22C168.046 150.409 168.293 150.679 168.485 151.031C168.677 151.379 168.773 151.831 168.773 152.388V157.459H167.322V156.415H167.262C167.166 156.607 167.022 156.796 166.829 156.982C166.637 157.167 166.39 157.321 166.089 157.444C165.787 157.567 165.426 157.628 165.005 157.628ZM165.328 156.435C165.739 156.435 166.09 156.354 166.382 156.191C166.677 156.029 166.901 155.817 167.053 155.555C167.209 155.29 167.287 155.006 167.287 154.705V153.72C167.234 153.773 167.131 153.823 166.979 153.869C166.829 153.913 166.659 153.951 166.467 153.984C166.274 154.014 166.087 154.042 165.905 154.068C165.722 154.092 165.57 154.111 165.447 154.128C165.159 154.164 164.896 154.226 164.657 154.312C164.422 154.398 164.233 154.522 164.09 154.685C163.951 154.844 163.881 155.056 163.881 155.321C163.881 155.689 164.017 155.968 164.289 156.156C164.561 156.342 164.907 156.435 165.328 156.435ZM179.296 154.292V149.823H180.787V157.459H179.326V156.137H179.246C179.07 156.544 178.789 156.884 178.401 157.156C178.016 157.424 177.537 157.558 176.964 157.558C176.474 157.558 176.039 157.451 175.662 157.235C175.287 157.017 174.992 156.693 174.777 156.266C174.564 155.838 174.458 155.31 174.458 154.68V149.823H175.945V154.501C175.945 155.021 176.089 155.436 176.377 155.744C176.666 156.052 177.04 156.206 177.501 156.206C177.779 156.206 178.056 156.137 178.331 155.997C178.61 155.858 178.84 155.648 179.022 155.366C179.208 155.084 179.299 154.726 179.296 154.292ZM182.785 157.459V149.823H184.211V151.066H184.306C184.465 150.645 184.725 150.316 185.086 150.081C185.448 149.843 185.88 149.723 186.384 149.723C186.894 149.723 187.322 149.843 187.667 150.081C188.015 150.32 188.272 150.648 188.437 151.066H188.517C188.699 150.658 188.989 150.333 189.387 150.091C189.785 149.846 190.259 149.723 190.809 149.723C191.501 149.723 192.067 149.94 192.504 150.374C192.945 150.809 193.165 151.463 193.165 152.338V157.459H191.679V152.477C191.679 151.96 191.538 151.586 191.256 151.354C190.974 151.122 190.638 151.006 190.247 151.006C189.763 151.006 189.387 151.155 189.118 151.453C188.85 151.748 188.716 152.128 188.716 152.592V157.459H187.234V152.383C187.234 151.969 187.105 151.636 186.846 151.384C186.588 151.132 186.251 151.006 185.837 151.006C185.555 151.006 185.295 151.08 185.057 151.23C184.821 151.375 184.631 151.579 184.485 151.841C184.342 152.103 184.271 152.406 184.271 152.751V157.459H182.785ZM197.38 157.628C196.896 157.628 196.459 157.539 196.067 157.36C195.676 157.177 195.366 156.914 195.138 156.569C194.912 156.224 194.8 155.802 194.8 155.301C194.8 154.87 194.883 154.516 195.048 154.237C195.214 153.959 195.438 153.739 195.719 153.576C196.001 153.414 196.316 153.291 196.664 153.208C197.012 153.125 197.367 153.062 197.728 153.019C198.185 152.966 198.557 152.923 198.842 152.89C199.127 152.854 199.334 152.796 199.463 152.716C199.592 152.637 199.657 152.507 199.657 152.328V152.294C199.657 151.859 199.534 151.523 199.289 151.284C199.047 151.046 198.686 150.926 198.205 150.926C197.705 150.926 197.31 151.037 197.022 151.259C196.737 151.478 196.54 151.722 196.43 151.99L195.033 151.672C195.199 151.208 195.441 150.834 195.759 150.548C196.081 150.26 196.45 150.051 196.868 149.922C197.285 149.789 197.725 149.723 198.185 149.723C198.49 149.723 198.813 149.76 199.155 149.833C199.499 149.902 199.821 150.031 200.119 150.22C200.421 150.409 200.668 150.679 200.86 151.031C201.052 151.379 201.148 151.831 201.148 152.388V157.459H199.697V156.415H199.637C199.541 156.607 199.397 156.796 199.204 156.982C199.012 157.167 198.765 157.321 198.464 157.444C198.162 157.567 197.801 157.628 197.38 157.628ZM197.703 156.435C198.114 156.435 198.465 156.354 198.757 156.191C199.052 156.029 199.276 155.817 199.428 155.555C199.584 155.29 199.662 155.006 199.662 154.705V153.72C199.609 153.773 199.506 153.823 199.354 153.869C199.204 153.913 199.034 153.951 198.842 153.984C198.649 154.014 198.462 154.042 198.28 154.068C198.097 154.092 197.945 154.111 197.822 154.128C197.534 154.164 197.271 154.226 197.032 154.312C196.797 154.398 196.608 154.522 196.465 154.685C196.326 154.844 196.256 155.056 196.256 155.321C196.256 155.689 196.392 155.968 196.664 156.156C196.936 156.342 197.282 156.435 197.703 156.435ZM206.833 160.323V149.823H208.285V151.061H208.409C208.496 150.901 208.62 150.718 208.782 150.509C208.945 150.3 209.17 150.118 209.458 149.962C209.747 149.803 210.128 149.723 210.602 149.723C211.218 149.723 211.769 149.879 212.252 150.191C212.736 150.502 213.116 150.951 213.391 151.538C213.669 152.124 213.809 152.83 213.809 153.656C213.809 154.481 213.671 155.189 213.396 155.779C213.121 156.365 212.743 156.818 212.262 157.136C211.782 157.451 211.233 157.608 210.617 157.608C210.153 157.608 209.773 157.53 209.478 157.374C209.187 157.219 208.958 157.036 208.792 156.828C208.626 156.619 208.499 156.433 208.409 156.271H208.32V160.323H206.833ZM208.29 153.641C208.29 154.178 208.368 154.648 208.524 155.053C208.68 155.457 208.905 155.774 209.2 156.002C209.495 156.228 209.856 156.34 210.284 156.34C210.728 156.34 211.099 156.223 211.397 155.987C211.696 155.749 211.921 155.426 212.073 155.018C212.229 154.61 212.307 154.151 212.307 153.641C212.307 153.137 212.231 152.685 212.078 152.284C211.929 151.883 211.704 151.566 211.402 151.334C211.104 151.102 210.731 150.986 210.284 150.986C209.853 150.986 209.488 151.097 209.19 151.319C208.895 151.541 208.671 151.851 208.519 152.249C208.366 152.646 208.29 153.11 208.29 153.641ZM218.765 157.613C218.013 157.613 217.365 157.452 216.821 157.131C216.281 156.806 215.863 156.35 215.568 155.764C215.277 155.174 215.131 154.483 215.131 153.691C215.131 152.908 215.277 152.219 215.568 151.622C215.863 151.026 216.274 150.56 216.801 150.225C217.332 149.891 217.952 149.723 218.661 149.723C219.092 149.723 219.509 149.794 219.914 149.937C220.318 150.079 220.681 150.303 221.002 150.608C221.324 150.913 221.577 151.309 221.763 151.796C221.949 152.28 222.041 152.869 222.041 153.561V154.088H215.971V152.975H220.585C220.585 152.584 220.505 152.237 220.346 151.936C220.187 151.631 219.963 151.39 219.675 151.215C219.39 151.039 219.055 150.951 218.671 150.951C218.253 150.951 217.889 151.054 217.577 151.259C217.269 151.462 217.03 151.727 216.861 152.055C216.695 152.38 216.613 152.733 216.613 153.114V153.984C216.613 154.494 216.702 154.928 216.881 155.286C217.063 155.644 217.317 155.918 217.642 156.107C217.966 156.292 218.346 156.385 218.78 156.385C219.062 156.385 219.319 156.345 219.551 156.266C219.783 156.183 219.983 156.06 220.152 155.898C220.321 155.735 220.451 155.535 220.54 155.296L221.947 155.55C221.834 155.964 221.632 156.327 221.34 156.639C221.052 156.947 220.689 157.187 220.252 157.36C219.818 157.529 219.322 157.613 218.765 157.613ZM223.691 157.459V149.823H225.128V151.036H225.207C225.346 150.625 225.592 150.302 225.943 150.066C226.298 149.828 226.699 149.708 227.146 149.708C227.239 149.708 227.348 149.712 227.474 149.718C227.603 149.725 227.705 149.733 227.777 149.743V151.165C227.718 151.148 227.612 151.13 227.459 151.11C227.307 151.087 227.154 151.075 227.002 151.075C226.651 151.075 226.337 151.15 226.062 151.299C225.79 151.445 225.575 151.649 225.416 151.911C225.257 152.169 225.177 152.464 225.177 152.796V157.459H223.691ZM231.992 160.482C231.386 160.482 230.864 160.402 230.426 160.243C229.992 160.084 229.637 159.874 229.362 159.612C229.087 159.35 228.882 159.063 228.746 158.752L230.023 158.225C230.113 158.37 230.232 158.525 230.381 158.687C230.534 158.853 230.739 158.994 230.998 159.11C231.26 159.226 231.596 159.284 232.007 159.284C232.57 159.284 233.036 159.146 233.404 158.871C233.772 158.599 233.956 158.165 233.956 157.568V156.067H233.861C233.772 156.229 233.643 156.41 233.474 156.609C233.308 156.808 233.079 156.98 232.788 157.126C232.496 157.272 232.116 157.345 231.649 157.345C231.046 157.345 230.502 157.204 230.018 156.922C229.538 156.637 229.157 156.218 228.875 155.664C228.597 155.107 228.457 154.423 228.457 153.611C228.457 152.799 228.595 152.103 228.87 151.523C229.148 150.943 229.53 150.499 230.013 150.191C230.497 149.879 231.046 149.723 231.659 149.723C232.133 149.723 232.516 149.803 232.807 149.962C233.099 150.118 233.326 150.3 233.489 150.509C233.654 150.718 233.782 150.901 233.871 151.061H233.981V149.823H235.437V157.628C235.437 158.284 235.285 158.823 234.98 159.244C234.675 159.665 234.262 159.976 233.742 160.178C233.225 160.381 232.642 160.482 231.992 160.482ZM231.977 156.112C232.405 156.112 232.766 156.012 233.061 155.813C233.359 155.611 233.585 155.323 233.737 154.948C233.893 154.57 233.971 154.118 233.971 153.591C233.971 153.077 233.895 152.625 233.742 152.234C233.59 151.843 233.366 151.538 233.071 151.319C232.776 151.097 232.411 150.986 231.977 150.986C231.53 150.986 231.157 151.102 230.859 151.334C230.56 151.563 230.335 151.874 230.182 152.269C230.033 152.663 229.959 153.104 229.959 153.591C229.959 154.092 230.035 154.531 230.187 154.909C230.34 155.286 230.565 155.581 230.864 155.794C231.165 156.006 231.536 156.112 231.977 156.112ZM242.268 154.292V149.823H243.76V157.459H242.298V156.137H242.219C242.043 156.544 241.761 156.884 241.374 157.156C240.989 157.424 240.51 157.558 239.937 157.558C239.446 157.558 239.012 157.451 238.634 157.235C238.26 157.017 237.965 156.693 237.749 156.266C237.537 155.838 237.431 155.31 237.431 154.68V149.823H238.918V154.501C238.918 155.021 239.062 155.436 239.35 155.744C239.638 156.052 240.013 156.206 240.474 156.206C240.752 156.206 241.029 156.137 241.304 155.997C241.582 155.858 241.813 155.648 241.995 155.366C242.181 155.084 242.272 154.726 242.268 154.292ZM247.244 152.925V157.459H245.757V149.823H247.184V151.066H247.279C247.454 150.661 247.729 150.336 248.104 150.091C248.482 149.846 248.957 149.723 249.531 149.723C250.051 149.723 250.507 149.833 250.898 150.051C251.289 150.267 251.592 150.588 251.808 151.016C252.023 151.443 252.131 151.972 252.131 152.602V157.459H250.644V152.781C250.644 152.227 250.5 151.795 250.212 151.483C249.923 151.168 249.527 151.011 249.024 151.011C248.679 151.011 248.372 151.085 248.104 151.235C247.839 151.384 247.628 151.602 247.472 151.891C247.32 152.176 247.244 152.521 247.244 152.925ZM257.689 149.823V151.016H253.518V149.823H257.689ZM254.636 147.993H256.123V155.217C256.123 155.505 256.166 155.722 256.252 155.868C256.338 156.011 256.449 156.108 256.585 156.161C256.725 156.211 256.875 156.236 257.038 156.236C257.157 156.236 257.261 156.228 257.351 156.211C257.44 156.195 257.51 156.181 257.56 156.171L257.828 157.399C257.742 157.432 257.619 157.466 257.46 157.499C257.301 157.535 257.102 157.555 256.864 157.558C256.473 157.565 256.108 157.495 255.77 157.35C255.432 157.204 255.159 156.978 254.95 156.673C254.741 156.369 254.636 155.986 254.636 155.525V147.993ZM261.556 157.628C261.072 157.628 260.634 157.539 260.243 157.36C259.852 157.177 259.542 156.914 259.314 156.569C259.088 156.224 258.975 155.802 258.975 155.301C258.975 154.87 259.058 154.516 259.224 154.237C259.39 153.959 259.613 153.739 259.895 153.576C260.177 153.414 260.492 153.291 260.84 153.208C261.188 153.125 261.542 153.062 261.904 153.019C262.361 152.966 262.732 152.923 263.017 152.89C263.302 152.854 263.51 152.796 263.639 152.716C263.768 152.637 263.833 152.507 263.833 152.328V152.294C263.833 151.859 263.71 151.523 263.465 151.284C263.223 151.046 262.862 150.926 262.381 150.926C261.881 150.926 261.486 151.037 261.198 151.259C260.913 151.478 260.715 151.722 260.606 151.99L259.209 151.672C259.375 151.208 259.617 150.834 259.935 150.548C260.256 150.26 260.626 150.051 261.044 149.922C261.461 149.789 261.9 149.723 262.361 149.723C262.666 149.723 262.989 149.76 263.331 149.833C263.675 149.902 263.997 150.031 264.295 150.22C264.597 150.409 264.844 150.679 265.036 151.031C265.228 151.379 265.324 151.831 265.324 152.388V157.459H263.872V156.415H263.813C263.717 156.607 263.573 156.796 263.38 156.982C263.188 157.167 262.941 157.321 262.64 157.444C262.338 157.567 261.977 157.628 261.556 157.628ZM261.879 156.435C262.29 156.435 262.641 156.354 262.933 156.191C263.228 156.029 263.452 155.817 263.604 155.555C263.76 155.29 263.838 155.006 263.838 154.705V153.72C263.785 153.773 263.682 153.823 263.529 153.869C263.38 153.913 263.21 153.951 263.017 153.984C262.825 154.014 262.638 154.042 262.456 154.068C262.273 154.092 262.121 154.111 261.998 154.128C261.71 154.164 261.446 154.226 261.208 154.312C260.972 154.398 260.783 154.522 260.641 154.685C260.502 154.844 260.432 155.056 260.432 155.321C260.432 155.689 260.568 155.968 260.84 156.156C261.112 156.342 261.458 156.435 261.879 156.435ZM273.231 157.628C272.748 157.628 272.31 157.539 271.919 157.36C271.528 157.177 271.218 156.914 270.989 156.569C270.764 156.224 270.651 155.802 270.651 155.301C270.651 154.87 270.734 154.516 270.9 154.237C271.066 153.959 271.289 153.739 271.571 153.576C271.853 153.414 272.168 153.291 272.516 153.208C272.864 153.125 273.218 153.062 273.579 153.019C274.037 152.966 274.408 152.923 274.693 152.89C274.978 152.854 275.185 152.796 275.315 152.716C275.444 152.637 275.508 152.507 275.508 152.328V152.294C275.508 151.859 275.386 151.523 275.141 151.284C274.899 151.046 274.537 150.926 274.057 150.926C273.556 150.926 273.162 151.037 272.874 151.259C272.588 151.478 272.391 151.722 272.282 151.99L270.885 151.672C271.051 151.208 271.293 150.834 271.611 150.548C271.932 150.26 272.302 150.051 272.719 149.922C273.137 149.789 273.576 149.723 274.037 149.723C274.342 149.723 274.665 149.76 275.006 149.833C275.351 149.902 275.673 150.031 275.971 150.22C276.272 150.409 276.519 150.679 276.712 151.031C276.904 151.379 277 151.831 277 152.388V157.459H275.548V156.415H275.489C275.392 156.607 275.248 156.796 275.056 156.982C274.864 157.167 274.617 157.321 274.315 157.444C274.014 157.567 273.652 157.628 273.231 157.628ZM273.555 156.435C273.966 156.435 274.317 156.354 274.609 156.191C274.904 156.029 275.127 155.817 275.28 155.555C275.436 155.29 275.513 155.006 275.513 154.705V153.72C275.46 153.773 275.358 153.823 275.205 153.869C275.056 153.913 274.885 153.951 274.693 153.984C274.501 154.014 274.314 154.042 274.131 154.068C273.949 154.092 273.797 154.111 273.674 154.128C273.386 154.164 273.122 154.226 272.883 154.312C272.648 154.398 272.459 154.522 272.317 154.685C272.178 154.844 272.108 155.056 272.108 155.321C272.108 155.689 272.244 155.968 272.516 156.156C272.787 156.342 273.134 156.435 273.555 156.435ZM282.182 160.482C281.575 160.482 281.053 160.402 280.616 160.243C280.181 160.084 279.827 159.874 279.552 159.612C279.277 159.35 279.071 159.063 278.935 158.752L280.213 158.225C280.302 158.37 280.422 158.525 280.571 158.687C280.723 158.853 280.929 158.994 281.187 159.11C281.449 159.226 281.786 159.284 282.197 159.284C282.76 159.284 283.226 159.146 283.594 158.871C283.961 158.599 284.145 158.165 284.145 157.568V156.067H284.051C283.961 156.229 283.832 156.41 283.663 156.609C283.497 156.808 283.269 156.98 282.977 157.126C282.685 157.272 282.306 157.345 281.839 157.345C281.235 157.345 280.692 157.204 280.208 156.922C279.727 156.637 279.346 156.218 279.064 155.664C278.786 155.107 278.647 154.423 278.647 153.611C278.647 152.799 278.784 152.103 279.059 151.523C279.338 150.943 279.719 150.499 280.203 150.191C280.687 149.879 281.235 149.723 281.848 149.723C282.322 149.723 282.705 149.803 282.997 149.962C283.289 150.118 283.516 150.3 283.678 150.509C283.844 150.718 283.971 150.901 284.061 151.061H284.17V149.823H285.627V157.628C285.627 158.284 285.474 158.823 285.17 159.244C284.865 159.665 284.452 159.976 283.932 160.178C283.415 160.381 282.831 160.482 282.182 160.482ZM282.167 156.112C282.594 156.112 282.955 156.012 283.25 155.813C283.549 155.611 283.774 155.323 283.927 154.948C284.082 154.57 284.16 154.118 284.16 153.591C284.16 153.077 284.084 152.625 283.932 152.234C283.779 151.843 283.555 151.538 283.26 151.319C282.965 151.097 282.601 150.986 282.167 150.986C281.719 150.986 281.346 151.102 281.048 151.334C280.75 151.563 280.524 151.874 280.372 152.269C280.223 152.663 280.148 153.104 280.148 153.591C280.148 154.092 280.224 154.531 280.377 154.909C280.529 155.286 280.755 155.581 281.053 155.794C281.355 156.006 281.726 156.112 282.167 156.112ZM290.837 157.613C290.121 157.613 289.496 157.449 288.963 157.121C288.429 156.793 288.015 156.334 287.72 155.744C287.425 155.154 287.277 154.464 287.277 153.676C287.277 152.883 287.425 152.191 287.72 151.597C288.015 151.004 288.429 150.544 288.963 150.215C289.496 149.887 290.121 149.723 290.837 149.723C291.553 149.723 292.178 149.887 292.711 150.215C293.245 150.544 293.659 151.004 293.954 151.597C294.249 152.191 294.397 152.883 294.397 153.676C294.397 154.464 294.249 155.154 293.954 155.744C293.659 156.334 293.245 156.793 292.711 157.121C292.178 157.449 291.553 157.613 290.837 157.613ZM290.842 156.365C291.306 156.365 291.691 156.243 291.996 155.997C292.3 155.752 292.526 155.426 292.672 155.018C292.821 154.61 292.895 154.161 292.895 153.671C292.895 153.183 292.821 152.736 292.672 152.328C292.526 151.917 292.3 151.588 291.996 151.339C291.691 151.09 291.306 150.966 290.842 150.966C290.375 150.966 289.987 151.09 289.679 151.339C289.374 151.588 289.147 151.917 288.998 152.328C288.852 152.736 288.779 153.183 288.779 153.671C288.779 154.161 288.852 154.61 288.998 155.018C289.147 155.426 289.374 155.752 289.679 155.997C289.987 156.243 290.375 156.365 290.842 156.365ZM296.056 157.459V149.823H297.493V151.036H297.572C297.712 150.625 297.957 150.302 298.308 150.066C298.663 149.828 299.064 149.708 299.511 149.708C299.604 149.708 299.713 149.712 299.839 149.718C299.969 149.725 300.07 149.733 300.143 149.743V151.165C300.083 151.148 299.977 151.13 299.825 151.11C299.672 151.087 299.52 151.075 299.367 151.075C299.016 151.075 298.703 151.15 298.428 151.299C298.156 151.445 297.94 151.649 297.781 151.911C297.622 152.169 297.543 152.464 297.543 152.796V157.459H296.056ZM303.583 157.628C303.099 157.628 302.662 157.539 302.271 157.36C301.879 157.177 301.57 156.914 301.341 156.569C301.115 156.224 301.003 155.802 301.003 155.301C301.003 154.87 301.086 154.516 301.251 154.237C301.417 153.959 301.641 153.739 301.923 153.576C302.204 153.414 302.519 153.291 302.867 153.208C303.215 153.125 303.57 153.062 303.931 153.019C304.388 152.966 304.76 152.923 305.045 152.89C305.33 152.854 305.537 152.796 305.666 152.716C305.795 152.637 305.86 152.507 305.86 152.328V152.294C305.86 151.859 305.737 151.523 305.492 151.284C305.25 151.046 304.889 150.926 304.408 150.926C303.908 150.926 303.513 151.037 303.225 151.259C302.94 151.478 302.743 151.722 302.633 151.99L301.236 151.672C301.402 151.208 301.644 150.834 301.962 150.548C302.284 150.26 302.653 150.051 303.071 149.922C303.489 149.789 303.928 149.723 304.388 149.723C304.693 149.723 305.017 149.76 305.358 149.833C305.703 149.902 306.024 150.031 306.322 150.22C306.624 150.409 306.871 150.679 307.063 151.031C307.255 151.379 307.352 151.831 307.352 152.388V157.459H305.9V156.415H305.84C305.744 156.607 305.6 156.796 305.408 156.982C305.215 157.167 304.968 157.321 304.667 157.444C304.365 157.567 304.004 157.628 303.583 157.628ZM303.906 156.435C304.317 156.435 304.669 156.354 304.96 156.191C305.255 156.029 305.479 155.817 305.631 155.555C305.787 155.29 305.865 155.006 305.865 154.705V153.72C305.812 153.773 305.709 153.823 305.557 153.869C305.408 153.913 305.237 153.951 305.045 153.984C304.852 154.014 304.665 154.042 304.483 154.068C304.301 154.092 304.148 154.111 304.026 154.128C303.737 154.164 303.474 154.226 303.235 154.312C303 154.398 302.811 154.522 302.668 154.685C302.529 154.844 302.459 155.056 302.459 155.321C302.459 155.689 302.595 155.968 302.867 156.156C303.139 156.342 303.485 156.435 303.906 156.435Z" fill="#5E391C"/>
</g>
<defs>
<clipPath id="clip0_16170_32">
<rect width="458" height="268" fill="white"/>
</clipPath>
</defs>
</svg>
