<svg width="458" height="358" viewBox="0 0 458 358" fill="none" xmlns="http://www.w3.org/2000/svg">
<g clip-path="url(#clip0_4807_144)">
<rect width="458" height="358" fill="#536493"/>
<circle opacity="0.08" cx="290.507" cy="19.5074" r="131.507" fill="white"/>
<circle opacity="0.2" cx="290.507" cy="19.5076" r="95.5127" fill="white"/>
<circle opacity="0.6" cx="290.507" cy="19.5074" r="63.4898" fill="white"/>
<g opacity="0.5">
<path d="M266.401 84.9314L265.842 84.7715C265.59 84.7005 265.361 84.566 265.176 84.3809C264.991 84.1958 264.856 83.9664 264.785 83.7144L264.625 83.155C264.617 83.1355 264.603 83.1187 264.586 83.1069C264.568 83.0952 264.548 83.0889 264.526 83.0889C264.505 83.0889 264.485 83.0952 264.467 83.1069C264.449 83.1187 264.436 83.1355 264.428 83.155L264.268 83.7144C264.197 83.9664 264.062 84.1958 263.877 84.3809C263.692 84.566 263.463 84.7005 263.211 84.7715L262.651 84.9314C262.63 84.9375 262.611 84.9504 262.598 84.9682C262.584 84.986 262.577 85.0078 262.577 85.0301C262.577 85.0524 262.584 85.0741 262.598 85.0919C262.611 85.1098 262.63 85.1227 262.651 85.1288L263.211 85.2887C263.463 85.3597 263.692 85.4942 263.877 85.6792C264.062 85.8643 264.197 86.0938 264.268 86.3457L264.428 86.9051C264.434 86.9266 264.447 86.9455 264.465 86.959C264.482 86.9724 264.504 86.9797 264.526 86.9797C264.549 86.9797 264.57 86.9724 264.588 86.959C264.606 86.9455 264.619 86.9266 264.625 86.9051L264.785 86.3457C264.856 86.0938 264.991 85.8643 265.176 85.6792C265.361 85.4942 265.59 85.3597 265.842 85.2887L266.401 85.1288C266.423 85.1227 266.442 85.1098 266.455 85.0919C266.469 85.0741 266.476 85.0524 266.476 85.0301C266.476 85.0078 266.469 84.986 266.455 84.9682C266.442 84.9504 266.423 84.9375 266.401 84.9314Z" fill="white"/>
</g>
<path opacity="0.6" d="M80.3667 199.264L79.653 199.028C79.3316 198.923 79.0389 198.725 78.8028 198.452C78.5666 198.179 78.3951 197.841 78.3045 197.469L78.1005 196.644C78.0903 196.616 78.0728 196.591 78.0504 196.574C78.028 196.556 78.0016 196.547 77.9746 196.547C77.9476 196.547 77.9212 196.556 77.8988 196.574C77.8764 196.591 77.8589 196.616 77.8487 196.644L77.6447 197.469C77.5541 197.841 77.3825 198.179 77.1464 198.452C76.9103 198.725 76.6175 198.923 76.2961 199.028L75.5825 199.264C75.5551 199.273 75.5309 199.292 75.5138 199.318C75.4966 199.344 75.4873 199.376 75.4873 199.409C75.4873 199.442 75.4966 199.474 75.5138 199.5C75.5309 199.527 75.5551 199.546 75.5825 199.555L76.2961 199.79C76.6175 199.895 76.9103 200.093 77.1464 200.366C77.3825 200.639 77.5541 200.978 77.6447 201.349L77.8487 202.174C77.8564 202.206 77.8729 202.233 77.8957 202.253C77.9184 202.273 77.9461 202.284 77.9746 202.284C78.0031 202.284 78.0308 202.273 78.0535 202.253C78.0762 202.233 78.0927 202.206 78.1005 202.174L78.3045 201.349C78.3951 200.978 78.5666 200.639 78.8028 200.366C79.0389 200.093 79.3316 199.895 79.653 199.79L80.3667 199.555C80.3941 199.546 80.4182 199.527 80.4354 199.5C80.4526 199.474 80.4619 199.442 80.4619 199.409C80.4619 199.376 80.4526 199.344 80.4354 199.318C80.4182 199.292 80.3941 199.273 80.3667 199.264Z" fill="white"/>
<path opacity="0.6" d="M77.8794 260.093L77.1657 259.857C76.8443 259.752 76.5516 259.554 76.3155 259.281C76.0793 259.008 75.9078 258.67 75.8172 258.298L75.6132 257.474C75.603 257.445 75.5855 257.42 75.5631 257.403C75.5407 257.385 75.5143 257.376 75.4873 257.376C75.4603 257.376 75.4339 257.385 75.4115 257.403C75.3891 257.42 75.3716 257.445 75.3614 257.474L75.1574 258.298C75.0668 258.67 74.8952 259.008 74.6591 259.281C74.423 259.554 74.1302 259.752 73.8088 259.857L73.0952 260.093C73.0678 260.102 73.0436 260.121 73.0265 260.147C73.0093 260.173 73 260.205 73 260.238C73 260.271 73.0093 260.303 73.0265 260.329C73.0436 260.356 73.0678 260.375 73.0952 260.384L73.8088 260.62C74.1302 260.724 74.423 260.923 74.6591 261.195C74.8952 261.468 75.0668 261.807 75.1574 262.178L75.3614 263.003C75.3691 263.035 75.3856 263.063 75.4084 263.082C75.4311 263.102 75.4588 263.113 75.4873 263.113C75.5158 263.113 75.5435 263.102 75.5662 263.082C75.5889 263.063 75.6054 263.035 75.6132 263.003L75.8172 262.178C75.9078 261.807 76.0793 261.468 76.3155 261.195C76.5516 260.923 76.8443 260.724 77.1657 260.62L77.8794 260.384C77.9068 260.375 77.9309 260.356 77.9481 260.329C77.9653 260.303 77.9746 260.271 77.9746 260.238C77.9746 260.205 77.9653 260.173 77.9481 260.147C77.9309 260.121 77.9068 260.102 77.8794 260.093Z" fill="white"/>
<path opacity="0.6" d="M105.877 117.717L105.163 117.481C104.842 117.376 104.549 117.178 104.313 116.905C104.077 116.632 103.905 116.294 103.814 115.922L103.611 115.098C103.6 115.069 103.583 115.044 103.56 115.027C103.538 115.009 103.512 115 103.485 115C103.458 115 103.431 115.009 103.409 115.027C103.386 115.044 103.369 115.069 103.359 115.098L103.155 115.922C103.064 116.294 102.893 116.632 102.656 116.905C102.42 117.178 102.128 117.376 101.806 117.481L101.092 117.717C101.065 117.726 101.041 117.745 101.024 117.771C101.007 117.797 100.997 117.829 100.997 117.862C100.997 117.895 101.007 117.927 101.024 117.953C101.041 117.98 101.065 117.999 101.092 118.008L101.806 118.244C102.128 118.348 102.42 118.547 102.656 118.819C102.893 119.092 103.064 119.431 103.155 119.802L103.359 120.627C103.366 120.659 103.383 120.687 103.406 120.706C103.428 120.726 103.456 120.737 103.485 120.737C103.513 120.737 103.541 120.726 103.564 120.706C103.586 120.687 103.603 120.659 103.611 120.627L103.814 119.802C103.905 119.431 104.077 119.092 104.313 118.819C104.549 118.547 104.842 118.348 105.163 118.244L105.877 118.008C105.904 117.999 105.928 117.98 105.945 117.953C105.963 117.927 105.972 117.895 105.972 117.862C105.972 117.829 105.963 117.797 105.945 117.771C105.928 117.745 105.904 117.726 105.877 117.717Z" fill="white"/>
<path opacity="0.6" d="M134.574 214.669L133.86 214.433C133.539 214.328 133.246 214.13 133.01 213.857C132.774 213.584 132.602 213.246 132.512 212.875L132.308 212.05C132.298 212.021 132.28 211.996 132.258 211.979C132.235 211.961 132.209 211.952 132.182 211.952C132.155 211.952 132.129 211.961 132.106 211.979C132.084 211.996 132.066 212.021 132.056 212.05L131.852 212.875C131.762 213.246 131.59 213.584 131.354 213.857C131.118 214.13 130.825 214.328 130.504 214.433L129.79 214.669C129.762 214.678 129.738 214.697 129.721 214.723C129.704 214.749 129.695 214.782 129.695 214.814C129.695 214.847 129.704 214.879 129.721 214.906C129.738 214.932 129.762 214.951 129.79 214.96L130.504 215.196C130.825 215.3 131.118 215.499 131.354 215.772C131.59 216.044 131.762 216.383 131.852 216.754L132.056 217.579C132.064 217.611 132.08 217.639 132.103 217.659C132.126 217.678 132.154 217.689 132.182 217.689C132.21 217.689 132.238 217.678 132.261 217.659C132.284 217.639 132.3 217.611 132.308 217.579L132.512 216.754C132.602 216.383 132.774 216.044 133.01 215.772C133.246 215.499 133.539 215.3 133.86 215.196L134.574 214.96C134.602 214.951 134.626 214.932 134.643 214.906C134.66 214.879 134.669 214.847 134.669 214.814C134.669 214.782 134.66 214.749 134.643 214.723C134.626 214.697 134.602 214.678 134.574 214.669Z" fill="white"/>
<path opacity="0.6" d="M409.367 248.264L408.653 248.028C408.332 247.923 408.039 247.725 407.803 247.452C407.567 247.179 407.395 246.841 407.304 246.469L407.101 245.644C407.09 245.616 407.073 245.591 407.05 245.574C407.028 245.556 407.002 245.547 406.975 245.547C406.948 245.547 406.921 245.556 406.899 245.574C406.876 245.591 406.859 245.616 406.849 245.644L406.645 246.469C406.554 246.841 406.383 247.179 406.146 247.452C405.91 247.725 405.618 247.923 405.296 248.028L404.582 248.264C404.555 248.273 404.531 248.292 404.514 248.318C404.497 248.344 404.487 248.376 404.487 248.409C404.487 248.442 404.497 248.474 404.514 248.5C404.531 248.527 404.555 248.546 404.582 248.555L405.296 248.79C405.618 248.895 405.91 249.093 406.146 249.366C406.383 249.639 406.554 249.978 406.645 250.349L406.849 251.174C406.856 251.206 406.873 251.233 406.896 251.253C406.918 251.273 406.946 251.284 406.975 251.284C407.003 251.284 407.031 251.273 407.054 251.253C407.076 251.233 407.093 251.206 407.101 251.174L407.304 250.349C407.395 249.978 407.567 249.639 407.803 249.366C408.039 249.093 408.332 248.895 408.653 248.79L409.367 248.555C409.394 248.546 409.418 248.527 409.435 248.5C409.453 248.474 409.462 248.442 409.462 248.409C409.462 248.376 409.453 248.344 409.435 248.318C409.418 248.292 409.394 248.273 409.367 248.264Z" fill="white"/>
<path opacity="0.6" d="M406.879 309.093L406.166 308.857C405.844 308.752 405.552 308.554 405.315 308.281C405.079 308.008 404.908 307.67 404.817 307.298L404.613 306.474C404.603 306.445 404.586 306.42 404.563 306.403C404.541 306.385 404.514 306.376 404.487 306.376C404.46 306.376 404.434 306.385 404.411 306.403C404.389 306.42 404.372 306.445 404.361 306.474L404.157 307.298C404.067 307.67 403.895 308.008 403.659 308.281C403.423 308.554 403.13 308.752 402.809 308.857L402.095 309.093C402.068 309.102 402.044 309.121 402.026 309.147C402.009 309.173 402 309.205 402 309.238C402 309.271 402.009 309.303 402.026 309.329C402.044 309.356 402.068 309.375 402.095 309.384L402.809 309.62C403.13 309.724 403.423 309.923 403.659 310.195C403.895 310.468 404.067 310.807 404.157 311.178L404.361 312.003C404.369 312.035 404.386 312.063 404.408 312.082C404.431 312.102 404.459 312.113 404.487 312.113C404.516 312.113 404.543 312.102 404.566 312.082C404.589 312.063 404.605 312.035 404.613 312.003L404.817 311.178C404.908 310.807 405.079 310.468 405.315 310.195C405.552 309.923 405.844 309.724 406.166 309.62L406.879 309.384C406.907 309.375 406.931 309.356 406.948 309.329C406.965 309.303 406.975 309.271 406.975 309.238C406.975 309.205 406.965 309.173 406.948 309.147C406.931 309.121 406.907 309.102 406.879 309.093Z" fill="white"/>
<path opacity="0.6" d="M434.877 166.717L434.163 166.481C433.842 166.376 433.549 166.178 433.313 165.905C433.077 165.632 432.905 165.294 432.814 164.922L432.611 164.098C432.6 164.069 432.583 164.044 432.56 164.027C432.538 164.009 432.512 164 432.485 164C432.458 164 432.431 164.009 432.409 164.027C432.386 164.044 432.369 164.069 432.359 164.098L432.155 164.922C432.064 165.294 431.893 165.632 431.656 165.905C431.42 166.178 431.128 166.376 430.806 166.481L430.092 166.717C430.065 166.726 430.041 166.745 430.024 166.771C430.007 166.797 429.997 166.829 429.997 166.862C429.997 166.895 430.007 166.927 430.024 166.953C430.041 166.98 430.065 166.999 430.092 167.008L430.806 167.244C431.128 167.348 431.42 167.547 431.656 167.819C431.893 168.092 432.064 168.431 432.155 168.802L432.359 169.627C432.366 169.659 432.383 169.687 432.406 169.706C432.428 169.726 432.456 169.737 432.485 169.737C432.513 169.737 432.541 169.726 432.564 169.706C432.586 169.687 432.603 169.659 432.611 169.627L432.814 168.802C432.905 168.431 433.077 168.092 433.313 167.819C433.549 167.547 433.842 167.348 434.163 167.244L434.877 167.008C434.904 166.999 434.928 166.98 434.945 166.953C434.963 166.927 434.972 166.895 434.972 166.862C434.972 166.829 434.963 166.797 434.945 166.771C434.928 166.745 434.904 166.726 434.877 166.717Z" fill="white"/>
<path opacity="0.6" d="M253.548 306.504L253.11 307.114C252.914 307.39 252.637 307.609 252.306 307.753C251.975 307.897 251.6 307.959 251.219 307.934L250.371 307.882C250.34 307.883 250.311 307.892 250.288 307.909C250.265 307.925 250.248 307.947 250.24 307.973C250.232 307.999 250.233 308.027 250.243 308.053C250.253 308.08 250.271 308.104 250.295 308.122L251.021 308.564C251.349 308.762 251.62 309.026 251.81 309.333C252 309.64 252.101 309.979 252.105 310.317L252.116 311.069C252.116 311.098 252.127 311.126 252.147 311.15C252.167 311.175 252.195 311.193 252.227 311.203C252.258 311.213 252.291 311.214 252.321 311.205C252.352 311.197 252.377 311.179 252.394 311.156L252.832 310.545C253.029 310.27 253.305 310.05 253.636 309.907C253.968 309.763 254.342 309.701 254.723 309.725L255.571 309.778C255.604 309.78 255.635 309.772 255.661 309.757C255.687 309.741 255.705 309.718 255.714 309.69C255.722 309.663 255.721 309.634 255.708 309.606C255.696 309.578 255.675 309.554 255.647 309.537L254.921 309.096C254.593 308.898 254.322 308.633 254.132 308.326C253.943 308.019 253.841 307.68 253.837 307.342L253.826 306.591C253.826 306.562 253.815 306.533 253.795 306.509C253.775 306.485 253.747 306.466 253.716 306.457C253.684 306.447 253.651 306.446 253.621 306.455C253.591 306.463 253.565 306.48 253.548 306.504Z" fill="white"/>
<path opacity="0.6" d="M310.843 327.087L310.405 327.697C310.209 327.973 309.932 328.193 309.601 328.336C309.27 328.48 308.895 328.542 308.514 328.517L307.666 328.465C307.635 328.466 307.606 328.475 307.583 328.492C307.56 328.508 307.543 328.53 307.535 328.556C307.527 328.582 307.528 328.61 307.538 328.636C307.548 328.663 307.566 328.687 307.59 328.705L308.316 329.147C308.644 329.345 308.915 329.61 309.105 329.916C309.295 330.223 309.396 330.562 309.4 330.9L309.411 331.652C309.411 331.681 309.422 331.709 309.442 331.733C309.462 331.758 309.49 331.776 309.521 331.786C309.553 331.796 309.586 331.797 309.616 331.788C309.647 331.78 309.672 331.762 309.689 331.739L310.127 331.128C310.323 330.853 310.6 330.633 310.931 330.49C311.262 330.346 311.637 330.284 312.018 330.308L312.866 330.361C312.899 330.363 312.93 330.355 312.956 330.34C312.982 330.324 313 330.301 313.009 330.273C313.017 330.246 313.015 330.217 313.003 330.189C312.991 330.161 312.97 330.137 312.942 330.12L312.216 329.679C311.888 329.481 311.617 329.216 311.427 328.909C311.238 328.602 311.136 328.263 311.132 327.925L311.121 327.174C311.121 327.145 311.11 327.116 311.09 327.092C311.07 327.068 311.042 327.049 311.011 327.04C310.979 327.03 310.946 327.029 310.916 327.038C310.885 327.046 310.86 327.063 310.843 327.087Z" fill="white"/>
<path opacity="0.6" d="M183.378 257.752L182.939 258.362C182.743 258.638 182.466 258.858 182.135 259.001C181.804 259.145 181.43 259.207 181.048 259.182L180.2 259.13C180.17 259.131 180.141 259.14 180.118 259.157C180.094 259.173 180.078 259.195 180.07 259.221C180.061 259.247 180.062 259.275 180.072 259.301C180.082 259.328 180.1 259.352 180.125 259.37L180.851 259.812C181.178 260.01 181.45 260.275 181.639 260.582C181.829 260.889 181.931 261.227 181.934 261.565L181.946 262.317C181.946 262.346 181.957 262.374 181.977 262.399C181.997 262.423 182.025 262.441 182.056 262.451C182.087 262.461 182.121 262.462 182.151 262.453C182.181 262.445 182.207 262.427 182.223 262.404L182.662 261.793C182.858 261.518 183.135 261.298 183.466 261.155C183.797 261.011 184.171 260.949 184.553 260.973L185.401 261.026C185.433 261.028 185.465 261.02 185.491 261.005C185.516 260.989 185.535 260.966 185.543 260.938C185.552 260.911 185.55 260.882 185.538 260.854C185.526 260.826 185.504 260.802 185.476 260.785L184.75 260.344C184.423 260.146 184.151 259.881 183.962 259.574C183.772 259.267 183.67 258.929 183.667 258.591L183.656 257.839C183.655 257.81 183.644 257.781 183.624 257.757C183.604 257.733 183.577 257.715 183.545 257.705C183.514 257.695 183.48 257.694 183.45 257.703C183.42 257.711 183.395 257.728 183.378 257.752Z" fill="white"/>
<path opacity="0.6" d="M284.475 259.394L284.036 260.004C283.84 260.28 283.563 260.5 283.232 260.643C282.901 260.787 282.527 260.849 282.145 260.824L281.297 260.772C281.267 260.773 281.238 260.783 281.214 260.799C281.191 260.815 281.174 260.837 281.166 260.863C281.158 260.889 281.159 260.917 281.169 260.943C281.179 260.97 281.197 260.994 281.222 261.012L281.948 261.454C282.275 261.652 282.546 261.917 282.736 262.224C282.926 262.531 283.027 262.869 283.031 263.207L283.042 263.959C283.043 263.988 283.054 264.016 283.074 264.041C283.094 264.065 283.121 264.083 283.153 264.093C283.184 264.103 283.218 264.104 283.248 264.095C283.278 264.087 283.303 264.069 283.32 264.046L283.759 263.436C283.955 263.16 284.232 262.94 284.563 262.797C284.894 262.653 285.268 262.591 285.65 262.615L286.498 262.668C286.53 262.67 286.562 262.662 286.587 262.647C286.613 262.631 286.632 262.608 286.64 262.581C286.649 262.553 286.647 262.524 286.635 262.496C286.623 262.468 286.601 262.444 286.573 262.427L285.847 261.986C285.52 261.788 285.248 261.523 285.059 261.216C284.869 260.909 284.767 260.571 284.764 260.233L284.752 259.481C284.752 259.452 284.741 259.424 284.721 259.399C284.701 259.375 284.673 259.357 284.642 259.347C284.611 259.337 284.577 259.336 284.547 259.345C284.517 259.353 284.491 259.371 284.475 259.394Z" fill="white"/>
<g opacity="0.5">
<path d="M218.757 16.0077L218.029 16.0857C217.702 16.122 217.37 16.0736 217.067 15.9451C216.763 15.8167 216.498 15.6125 216.296 15.3522L215.845 14.775C215.826 14.756 215.802 14.7429 215.776 14.7375C215.75 14.732 215.723 14.7345 215.698 14.7445C215.673 14.7545 215.652 14.7716 215.637 14.7937C215.622 14.8157 215.614 14.8417 215.614 14.8684L215.692 15.5967C215.729 15.9243 215.68 16.2556 215.552 16.5591C215.423 16.8626 215.219 17.1281 214.959 17.3301L214.382 17.7812C214.359 17.7984 214.343 17.8225 214.336 17.8496C214.329 17.8768 214.331 17.9056 214.341 17.9316C214.352 17.9577 214.371 17.9796 214.395 17.994C214.419 18.0084 214.447 18.0146 214.475 18.0115L215.203 17.9335C215.531 17.8972 215.862 17.9456 216.166 18.0741C216.469 18.2025 216.735 18.4067 216.937 18.667L217.388 19.2442C217.405 19.2664 217.429 19.2823 217.456 19.2896C217.483 19.2969 217.512 19.2951 217.538 19.2845C217.564 19.274 217.586 19.2552 217.601 19.2311C217.615 19.2069 217.621 19.1788 217.618 19.1508L217.54 18.4225C217.504 18.0949 217.552 17.7636 217.681 17.4601C217.809 17.1566 218.013 16.8911 218.274 16.6891L218.851 16.238C218.873 16.2208 218.889 16.1967 218.896 16.1696C218.903 16.1424 218.902 16.1136 218.891 16.0876C218.881 16.0615 218.862 16.0396 218.838 16.0252C218.814 16.0108 218.785 16.0046 218.757 16.0077Z" fill="white"/>
</g>
</g>
<defs>
<clipPath id="clip0_4807_144">
<rect width="458" height="358" fill="white"/>
</clipPath>
</defs>
</svg>
