<svg width="318" height="262" viewBox="0 0 318 262" fill="none" xmlns="http://www.w3.org/2000/svg">
<rect x="214" y="80" width="104" height="164" fill="#7D92FF"/>
<path d="M214 64H302.873L318 80H214L214 64Z" fill="#7289FF"/>
<path opacity="0.2" d="M265.166 145.54C260.806 145.54 257.226 144.38 254.426 142.06C251.626 139.74 250.206 136.74 250.166 133.06H258.266C258.386 134.9 259.066 136.34 260.306 137.38C261.546 138.42 263.206 138.94 265.286 138.94C267.446 138.94 269.126 138.44 270.326 137.44C271.526 136.4 272.126 134.98 272.126 133.18C272.126 131.42 271.426 130.04 270.026 129.04C268.626 128.04 266.686 127.54 264.206 127.54H259.826V120.94H263.726C265.766 120.94 267.366 120.46 268.526 119.5C269.686 118.54 270.266 117.24 270.266 115.6C270.266 114 269.766 112.74 268.766 111.82C267.766 110.9 266.406 110.44 264.686 110.44C262.966 110.44 261.606 110.96 260.606 112C259.606 113 259.086 114.38 259.046 116.14H250.946C250.986 112.62 252.346 109.7 255.026 107.38C257.746 105.02 261.106 103.84 265.106 103.84C269.306 103.84 272.646 104.88 275.126 106.96C277.606 109 278.846 111.68 278.846 115C278.846 118.68 276.826 121.58 272.786 123.7C275.306 124.5 277.246 125.7 278.606 127.3C280.006 128.9 280.706 130.78 280.706 132.94C280.706 136.7 279.266 139.74 276.386 142.06C273.546 144.38 269.806 145.54 265.166 145.54Z" fill="white"/>
<rect y="48" width="104" height="164" fill="#7D92FF"/>
<path d="M14.1818 32H104V48H0L14.1818 32Z" fill="#7289FF"/>
<path opacity="0.2" d="M71.7953 125.08V135H34.0353V128.68L50.4353 111.88C53.7953 108.467 56.1153 105.773 57.3953 103.8C58.6753 101.773 59.3153 99.64 59.3153 97.4C59.3153 95.16 58.622 93.3733 57.2353 92.04C55.8486 90.7067 53.982 90.04 51.6353 90.04C49.022 90.04 46.9686 90.8133 45.4753 92.36C43.982 93.8533 43.2353 95.9333 43.2353 98.6H32.4353C32.4353 93.2133 34.2753 88.7867 37.9553 85.32C41.6353 81.8533 46.382 80.12 52.1953 80.12C57.582 80.12 62.0353 81.64 65.5553 84.68C69.1286 87.6667 70.9153 91.4533 70.9153 96.04C70.9153 99.3467 70.1153 102.36 68.5153 105.08C66.9153 107.8 63.7686 111.533 59.0753 116.28L50.9153 125.08H71.7953Z" fill="white"/>
<rect x="104" y="16" width="110" height="246" fill="url(#paint0_linear_145_943)"/>
<path d="M120 0H198L214 16H104L120 0Z" fill="#7289FF"/>
<path d="M169.631 125H155.731V69.4H142.931V57.4H169.631V125Z" fill="white"/>
<defs>
<linearGradient id="paint0_linear_145_943" x1="159" y1="16" x2="159" y2="189" gradientUnits="userSpaceOnUse">
<stop offset="0.32" stop-color="#3D5EFF"/>
<stop offset="1" stop-color="#889CFF"/>
</linearGradient>
</defs>
</svg>
