<svg width="41" height="41" viewBox="0 0 41 41" fill="none" xmlns="http://www.w3.org/2000/svg">
<path d="M20.4362 9.9041L20.4362 5.2541C20.4362 4.5041 19.5362 4.13744 19.0196 4.67077L12.7029 10.9874C12.3696 11.3208 12.3696 11.8374 12.7029 12.1708L19.0196 18.4874C19.5362 19.0041 20.4362 18.6374 20.4362 17.9041L20.4362 13.2374C26.6529 13.2374 31.5696 18.9374 30.2029 25.3874C29.4196 29.1708 26.3529 32.2208 22.5862 33.0041C16.6362 34.2541 11.3362 30.1708 10.5362 24.6541C10.4362 23.8541 9.73625 23.2374 8.90291 23.2374C7.90291 23.2374 7.10291 24.1208 7.23625 25.1208C8.26958 32.4374 15.2362 37.8541 23.1196 36.3208C28.3196 35.3041 32.5029 31.1208 33.5196 25.9208C35.1696 17.3708 28.6862 9.9041 20.4362 9.9041ZM18.6029 28.2374L17.1862 28.2374L17.1862 22.8041L15.5029 23.3208L15.5029 22.1708L18.4529 21.1208L18.6029 21.1208L18.6029 28.2374ZM25.7362 25.3041C25.7362 25.8374 25.6862 26.3041 25.5696 26.6708C25.4529 27.0374 25.2862 27.3708 25.0862 27.6208C24.8862 27.8708 24.6196 28.0541 24.3362 28.1708C24.0529 28.2874 23.7196 28.3374 23.3529 28.3374C22.9862 28.3374 22.6696 28.2874 22.3696 28.1708C22.0696 28.0541 21.8196 27.8708 21.6029 27.6208C21.3862 27.3708 21.2196 27.0541 21.1029 26.6708C20.9862 26.2874 20.9196 25.8374 20.9196 25.3041L20.9196 24.0708C20.9196 23.5374 20.9696 23.0708 21.0862 22.7041C21.2029 22.3374 21.3696 22.0041 21.5696 21.7541C21.7696 21.5041 22.0362 21.3208 22.3196 21.2041C22.6029 21.0874 22.9362 21.0374 23.3029 21.0374C23.6696 21.0374 23.9862 21.0874 24.2862 21.2041C24.5862 21.3208 24.8362 21.5041 25.0529 21.7541C25.2696 22.0041 25.4362 22.3208 25.5529 22.7041C25.6696 23.0874 25.7362 23.5374 25.7362 24.0708L25.7362 25.3041ZM24.3196 23.8708C24.3196 23.5541 24.3029 23.2874 24.2529 23.0708C24.2029 22.8541 24.1362 22.6874 24.0529 22.5541C23.9696 22.4208 23.8696 22.3208 23.7362 22.2708C23.6029 22.2208 23.4696 22.1874 23.3196 22.1874C23.1696 22.1874 23.0196 22.2208 22.9029 22.2708C22.7862 22.3208 22.6696 22.4208 22.5862 22.5541C22.5029 22.6874 22.4362 22.8541 22.3862 23.0708C22.3362 23.2874 22.3196 23.5541 22.3196 23.8708L22.3196 25.4874C22.3196 25.8041 22.3362 26.0708 22.3862 26.2874C22.4362 26.5041 22.5029 26.6874 22.5862 26.8208C22.6696 26.9541 22.7696 27.0541 22.9029 27.1041C23.0362 27.1541 23.1696 27.1874 23.3196 27.1874C23.4696 27.1874 23.6196 27.1541 23.7362 27.1041C23.8529 27.0541 23.9696 26.9541 24.0529 26.8208C24.1362 26.6874 24.2029 26.5041 24.2362 26.2874C24.2696 26.0708 24.3029 25.8041 24.3029 25.4874L24.3029 23.8708L24.3196 23.8708Z" fill="#F5F5F5"/>
</svg>
