<svg width="20" height="20" viewBox="0 0 20 20" fill="none" xmlns="http://www.w3.org/2000/svg">
<path d="M9.56666 2.91569C9.60191 2.82971 9.66193 2.75617 9.73909 2.7044C9.81626 2.65264 9.90708 2.625 9.99999 2.625C10.0929 2.625 10.1837 2.65264 10.2609 2.7044C10.3381 2.75617 10.3981 2.82971 10.4333 2.91569L12.2042 7.17485C12.2373 7.25455 12.2918 7.32356 12.3616 7.37428C12.4315 7.425 12.514 7.45548 12.6 7.46235L17.1983 7.83069C17.6142 7.86402 17.7825 8.38319 17.4658 8.65402L13.9625 11.6557C13.897 11.7117 13.8483 11.7846 13.8215 11.8665C13.7948 11.9484 13.7911 12.036 13.8108 12.1199L14.8817 16.6074C14.9032 16.6974 14.8975 16.7918 14.8655 16.8786C14.8334 16.9654 14.7763 17.0408 14.7014 17.0952C14.6265 17.1496 14.5371 17.1806 14.4446 17.1842C14.3521 17.1879 14.2606 17.164 14.1817 17.1157L10.2442 14.7115C10.1706 14.6667 10.0861 14.643 9.99999 14.643C9.91386 14.643 9.82938 14.6667 9.75583 14.7115L5.81833 17.1165C5.73937 17.1648 5.64787 17.1887 5.55537 17.185C5.46288 17.1814 5.37354 17.1504 5.29863 17.096C5.22373 17.0416 5.16663 16.9663 5.13454 16.8794C5.10245 16.7926 5.0968 16.6982 5.11833 16.6082L6.18916 12.1199C6.20902 12.036 6.20537 11.9483 6.17861 11.8664C6.15185 11.7845 6.10302 11.7116 6.03749 11.6557L2.53416 8.65402C2.464 8.5937 2.41325 8.51397 2.38828 8.42488C2.36332 8.33579 2.36525 8.2413 2.39384 8.15331C2.42243 8.06531 2.4764 7.98773 2.54896 7.93033C2.62153 7.87292 2.70945 7.83826 2.80166 7.83069L7.39999 7.46235C7.48604 7.45548 7.56851 7.425 7.63835 7.37428C7.70819 7.32356 7.76268 7.25455 7.79583 7.17485L9.56666 2.91569Z" stroke="#4A68FF" stroke-width="1.5" stroke-linecap="round" stroke-linejoin="round"/>
</svg>
