<svg width="367" height="277" viewBox="0 0 367 277" fill="none" xmlns="http://www.w3.org/2000/svg">
<g clip-path="url(#clip0_4807_161)">
<rect x="0.943726" width="366" height="277" rx="18.8787" fill="#FFF7EB"/>
<circle opacity="0.1" cx="381.448" cy="29.5032" r="63.4898" fill="#FF8A27"/>
<g clip-path="url(#clip1_4807_161)">
<path d="M219.09 141.95L183.944 129.046L176.319 163.72L183.944 204.24H219.09V141.95Z" fill="#C57A44"/>
<path d="M118.765 105.115L63.5511 204.24H183.944V129.046L118.765 105.115Z" fill="#D88A55"/>
<path d="M126.751 204.24L128.387 188.373C117.357 185.236 105.951 181.993 98.4884 176.465C93.1964 172.544 90.0519 165.768 94.649 160.932C98.151 157.248 103.549 155.302 109.799 153.049C115.85 150.869 122.708 148.396 128.335 144.042C135.933 138.162 138.902 129.512 136.084 121.469C135.141 118.777 131.258 110.291 118.765 105.116C106.265 99.098 90.8518 100.164 79.673 104.584L0.943726 135.704V198.962L126.751 204.24Z" fill="#EAB065"/>
<path d="M229.752 135.275C229.732 135.282 229.711 135.288 229.69 135.295C229.71 135.289 229.73 135.283 229.75 135.276L229.752 135.275Z" fill="#FFCC7B"/>
<path d="M295.221 201.517L224.521 137.138L183.944 152.036L176.319 189.345L183.944 224.42H251.581L295.221 201.517Z" fill="#EAB065"/>
<path d="M55.7487 199.103V224.42H183.944V152.036L55.7487 199.103Z" fill="#FFCC7B"/>
<path d="M270.435 136.479C258.04 131.58 243.753 129.767 224.521 137.138C209.879 143.219 205.319 153.184 204.21 156.349C200.898 165.804 204.369 175.955 213.268 182.842C219.945 188.009 228.24 190.999 235.558 193.637C243.642 196.551 250.623 199.068 255.337 204.027C261.426 210.433 258.152 218.877 251.581 224.42L366.944 222.615V174.629L270.435 136.479Z" fill="#EA9B58"/>
<path d="M366.944 222.615H323.414C277.302 222.615 231.274 218.712 186.607 211.014C185.72 210.861 184.831 210.72 183.944 210.57L176.318 242.634L183.944 277.068H366.944V222.615Z" fill="#FFCC7B"/>
<path d="M44.4734 198.962H0.943726V277.068H183.944V210.57C138.371 202.873 91.4658 198.962 44.4734 198.962Z" fill="#FFDF8E"/>
</g>
</g>
<defs>
<clipPath id="clip0_4807_161">
<rect x="0.943726" width="366" height="277" rx="18.8787" fill="white"/>
</clipPath>
<clipPath id="clip1_4807_161">
<rect width="366" height="211" fill="white" transform="translate(0.943726 66)"/>
</clipPath>
</defs>
</svg>
